<?xml version="1.0" encoding="UTF-8" standalone="no"?><svg xmlns="http://www.w3.org/2000/svg" xmlns:xlink="http://www.w3.org/1999/xlink" contentScriptType="application/ecmascript" contentStyleType="text/css" height="152px" preserveAspectRatio="none" style="width:207px;height:152px;" version="1.1" viewBox="0 0 207 152" width="207px" zoomAndPan="magnify"><defs><filter height="300%" id="fhzjhdxkv7a34" width="300%" x="-1" y="-1"><feGaussianBlur result="blurOut" stdDeviation="2.0"/><feColorMatrix in="blurOut" result="blurOut2" type="matrix" values="0 0 0 0 0 0 0 0 0 0 0 0 0 0 0 0 0 0 .4 0"/><feOffset dx="4.0" dy="4.0" in="blurOut2" result="blurOut3"/><feBlend in="SourceGraphic" in2="blurOut3" mode="normal"/></filter></defs><g><!--cluster com.envibe.envibe--><polygon fill="#FFFFFF" filter="url(#fhzjhdxkv7a34)" points="14,16,169,16,176,38.2969,179,38.2969,179,112,14,112,14,16" style="stroke: #000000; stroke-width: 1.5;"/><line style="stroke: #000000; stroke-width: 1.5;" x1="14" x2="176" y1="38.2969" y2="38.2969"/><text fill="#000000" font-family="sans-serif" font-size="14" font-weight="bold" lengthAdjust="spacingAndGlyphs" textLength="149" x="18" y="30.9951">com.envibe.envibe</text><!--class com.envibe.envibe.EnvibeApplication--><a href="EnvibeApplication.html" target="_top" xlink:actuate="onRequest" xlink:show="new" xlink:title="EnvibeApplication.html" xlink:type="simple"><rect fill="#FEFECE" filter="url(#fhzjhdxkv7a34)" height="60.8047" id="com.envibe.envibe.EnvibeApplication" style="stroke: #A80036; stroke-width: 1.5;" width="142" x="25" y="43"/><ellipse cx="40" cy="59" fill="#ADD1B2" rx="11" ry="11" style="stroke: #A80036; stroke-width: 1.0;"/><path d="M42.9688,64.6406 Q42.3906,64.9375 41.75,65.0781 Q41.1094,65.2344 40.4063,65.2344 Q37.9063,65.2344 36.5781,63.5938 Q35.2656,61.9375 35.2656,58.8125 Q35.2656,55.6875 36.5781,54.0313 Q37.9063,52.375 40.4063,52.375 Q41.1094,52.375 41.75,52.5313 Q42.4063,52.6875 42.9688,52.9844 L42.9688,55.7031 Q42.3438,55.125 41.75,54.8594 Q41.1563,54.5781 40.5313,54.5781 Q39.1875,54.5781 38.5,55.6563 Q37.8125,56.7188 37.8125,58.8125 Q37.8125,60.9063 38.5,61.9844 Q39.1875,63.0469 40.5313,63.0469 Q41.1563,63.0469 41.75,62.7813 Q42.3438,62.5 42.9688,61.9219 L42.9688,64.6406 Z "/><text fill="#000000" font-family="sans-serif" font-size="12" lengthAdjust="spacingAndGlyphs" textLength="110" x="54" y="63.1543">EnvibeApplication</text><line style="stroke: #A80036; stroke-width: 1.5;" x1="26" x2="166" y1="75" y2="75"/><line style="stroke: #A80036; stroke-width: 1.5;" x1="26" x2="166" y1="83" y2="83"/><ellipse cx="36" cy="94.9023" fill="#84BE84" rx="3" ry="3" style="stroke: #038048; stroke-width: 1.0;"/><text fill="#000000" font-family="sans-serif" font-size="11" lengthAdjust="spacingAndGlyphs" text-decoration="underline" textLength="109" x="45" y="97.2104">main(String[]): void</text></a><text fill="#888888" font-family="sans-serif" font-size="10" lengthAdjust="spacingAndGlyphs" textLength="186" x="9.5" y="139.2822">UMLDoclet 1.1.4, PlantUML 1.2019.05</text><!--
@startuml

    namespace com.envibe.envibe {

        class EnvibeApplication [[EnvibeApplication.html]] {
            {static} +main(String[]): void
        }

    }


    center footer UMLDoclet 1.1.4, PlantUML 1.2019.05
@enduml

PlantUML version 1.2019.05(Sat Apr 20 16:45:36 UTC 2019)
(APACHE source distribution)
Java Runtime: OpenJDK Runtime Environment
JVM: OpenJDK 64-Bit Server VM
Java Version: 1.8.0_242-b08
Operating System: Linux
OS Version: 5.0.0-1031-gcp
Default Encoding: UTF-8
Language: en
Country: US
--></g></svg>