<?xml version="1.0" encoding="UTF-8" standalone="no"?><svg xmlns="http://www.w3.org/2000/svg" xmlns:xlink="http://www.w3.org/1999/xlink" contentScriptType="application/ecmascript" contentStyleType="text/css" height="407px" preserveAspectRatio="none" style="width:807px;height:407px;" version="1.1" viewBox="0 0 807 407" width="807px" zoomAndPan="magnify"><defs><filter height="300%" id="fzlypyu58sj0q" width="300%" x="-1" y="-1"><feGaussianBlur result="blurOut" stdDeviation="2.0"/><feColorMatrix in="blurOut" result="blurOut2" type="matrix" values="0 0 0 0 0 0 0 0 0 0 0 0 0 0 0 0 0 0 .4 0"/><feOffset dx="4.0" dy="4.0" in="blurOut2" result="blurOut3"/><feBlend in="SourceGraphic" in2="blurOut3" mode="normal"/></filter></defs><g><!--cluster com.envibe.envibe.service--><polygon fill="#FFFFFF" filter="url(#fzlypyu58sj0q)" points="14,137,232,137,239,159.2969,785,159.2969,785,367,14,367,14,137" style="stroke: #000000; stroke-width: 1.5;"/><line style="stroke: #000000; stroke-width: 1.5;" x1="14" x2="239" y1="159.2969" y2="159.2969"/><text fill="#000000" font-family="sans-serif" font-size="14" font-weight="bold" lengthAdjust="spacingAndGlyphs" textLength="212" x="18" y="151.9951">com.envibe.envibe.service</text><!--cluster org.springframework.security.core.userdetails--><polygon fill="#FFFFFF" filter="url(#fzlypyu58sj0q)" points="14,16,391,16,398,38.2969,401,38.2969,401,112,14,112,14,16" style="stroke: #000000; stroke-width: 1.5;"/><line style="stroke: #000000; stroke-width: 1.5;" x1="14" x2="398" y1="38.2969" y2="38.2969"/><text fill="#000000" font-family="sans-serif" font-size="14" font-weight="bold" lengthAdjust="spacingAndGlyphs" textLength="371" x="18" y="30.9951">org.springframework.security.core.userdetails</text><!--class com.envibe.envibe.service.UserRegistrationService--><a href="UserRegistrationService.html" target="_top" xlink:actuate="onRequest" xlink:show="new" xlink:title="UserRegistrationService.html" xlink:type="simple"><rect fill="#FEFECE" filter="url(#fzlypyu58sj0q)" height="60.8047" id="com.envibe.envibe.service.UserRegistrationService" style="stroke: #A80036; stroke-width: 1.5;" width="232" x="323" y="170.5"/><ellipse cx="360.5" cy="186.5" fill="#ADD1B2" rx="11" ry="11" style="stroke: #A80036; stroke-width: 1.0;"/><path d="M363.4688,192.1406 Q362.8906,192.4375 362.25,192.5781 Q361.6094,192.7344 360.9063,192.7344 Q358.4063,192.7344 357.0781,191.0938 Q355.7656,189.4375 355.7656,186.3125 Q355.7656,183.1875 357.0781,181.5313 Q358.4063,179.875 360.9063,179.875 Q361.6094,179.875 362.25,180.0313 Q362.9063,180.1875 363.4688,180.4844 L363.4688,183.2031 Q362.8438,182.625 362.25,182.3594 Q361.6563,182.0781 361.0313,182.0781 Q359.6875,182.0781 359,183.1563 Q358.3125,184.2188 358.3125,186.3125 Q358.3125,188.4063 359,189.4844 Q359.6875,190.5469 361.0313,190.5469 Q361.6563,190.5469 362.25,190.2813 Q362.8438,190 363.4688,189.4219 L363.4688,192.1406 Z "/><text fill="#000000" font-family="sans-serif" font-size="12" lengthAdjust="spacingAndGlyphs" textLength="150" x="379.5" y="190.6543">UserRegistrationService</text><line style="stroke: #A80036; stroke-width: 1.5;" x1="324" x2="554" y1="202.5" y2="202.5"/><line style="stroke: #A80036; stroke-width: 1.5;" x1="324" x2="554" y1="210.5" y2="210.5"/><ellipse cx="334" cy="222.4023" fill="#84BE84" rx="3" ry="3" style="stroke: #038048; stroke-width: 1.0;"/><text fill="#000000" font-family="sans-serif" font-size="11" lengthAdjust="spacingAndGlyphs" textLength="206" x="343" y="224.7104">registerNewUserAccount(User): void</text></a><!--class com.envibe.envibe.service.UserAuthService--><a href="UserAuthService.html" target="_top" xlink:actuate="onRequest" xlink:show="new" xlink:title="UserAuthService.html" xlink:type="simple"><rect fill="#FEFECE" filter="url(#fzlypyu58sj0q)" height="60.8047" id="com.envibe.envibe.service.UserAuthService" style="stroke: #A80036; stroke-width: 1.5;" width="266" x="22" y="170.5"/><ellipse cx="99.25" cy="186.5" fill="#ADD1B2" rx="11" ry="11" style="stroke: #A80036; stroke-width: 1.0;"/><path d="M102.2188,192.1406 Q101.6406,192.4375 101,192.5781 Q100.3594,192.7344 99.6563,192.7344 Q97.1563,192.7344 95.8281,191.0938 Q94.5156,189.4375 94.5156,186.3125 Q94.5156,183.1875 95.8281,181.5313 Q97.1563,179.875 99.6563,179.875 Q100.3594,179.875 101,180.0313 Q101.6563,180.1875 102.2188,180.4844 L102.2188,183.2031 Q101.5938,182.625 101,182.3594 Q100.4063,182.0781 99.7813,182.0781 Q98.4375,182.0781 97.75,183.1563 Q97.0625,184.2188 97.0625,186.3125 Q97.0625,188.4063 97.75,189.4844 Q98.4375,190.5469 99.7813,190.5469 Q100.4063,190.5469 101,190.2813 Q101.5938,190 102.2188,189.4219 L102.2188,192.1406 Z "/><text fill="#000000" font-family="sans-serif" font-size="12" lengthAdjust="spacingAndGlyphs" textLength="103" x="119.75" y="190.6543">UserAuthService</text><line style="stroke: #A80036; stroke-width: 1.5;" x1="23" x2="287" y1="202.5" y2="202.5"/><line style="stroke: #A80036; stroke-width: 1.5;" x1="23" x2="287" y1="210.5" y2="210.5"/><ellipse cx="33" cy="222.4023" fill="#84BE84" rx="3" ry="3" style="stroke: #038048; stroke-width: 1.0;"/><text fill="#000000" font-family="sans-serif" font-size="11" lengthAdjust="spacingAndGlyphs" textLength="240" x="42" y="224.7104">loadUserByUsername(String): UserDetails</text></a><!--class com.envibe.envibe.service.NewsFeedUpdateService--><a href="NewsFeedUpdateService.html" target="_top" xlink:actuate="onRequest" xlink:show="new" xlink:title="NewsFeedUpdateService.html" xlink:type="simple"><rect fill="#FEFECE" filter="url(#fzlypyu58sj0q)" height="73.6094" id="com.envibe.envibe.service.NewsFeedUpdateService" style="stroke: #A80036; stroke-width: 1.5;" width="187" x="590.5" y="164"/><ellipse cx="605.5" cy="180" fill="#ADD1B2" rx="11" ry="11" style="stroke: #A80036; stroke-width: 1.0;"/><path d="M608.4688,185.6406 Q607.8906,185.9375 607.25,186.0781 Q606.6094,186.2344 605.9063,186.2344 Q603.4063,186.2344 602.0781,184.5938 Q600.7656,182.9375 600.7656,179.8125 Q600.7656,176.6875 602.0781,175.0313 Q603.4063,173.375 605.9063,173.375 Q606.6094,173.375 607.25,173.5313 Q607.9063,173.6875 608.4688,173.9844 L608.4688,176.7031 Q607.8438,176.125 607.25,175.8594 Q606.6563,175.5781 606.0313,175.5781 Q604.6875,175.5781 604,176.6563 Q603.3125,177.7188 603.3125,179.8125 Q603.3125,181.9063 604,182.9844 Q604.6875,184.0469 606.0313,184.0469 Q606.6563,184.0469 607.25,183.7813 Q607.8438,183.5 608.4688,182.9219 L608.4688,185.6406 Z "/><text fill="#000000" font-family="sans-serif" font-size="12" lengthAdjust="spacingAndGlyphs" textLength="155" x="619.5" y="184.1543">NewsFeedUpdateService</text><line style="stroke: #A80036; stroke-width: 1.5;" x1="591.5" x2="776.5" y1="196" y2="196"/><line style="stroke: #A80036; stroke-width: 1.5;" x1="591.5" x2="776.5" y1="204" y2="204"/><ellipse cx="601.5" cy="215.9023" fill="#84BE84" rx="3" ry="3" style="stroke: #038048; stroke-width: 1.0;"/><text fill="#000000" font-family="sans-serif" font-size="11" lengthAdjust="spacingAndGlyphs" textLength="130" x="610.5" y="218.2104">triggerWorker(int): void</text><ellipse cx="601.5" cy="228.707" fill="#84BE84" rx="3" ry="3" style="stroke: #038048; stroke-width: 1.0;"/><text fill="#000000" font-family="sans-serif" font-size="11" lengthAdjust="spacingAndGlyphs" textLength="95" x="610.5" y="231.0151">dismantle(): void</text></a><!--class com.envibe.envibe.service.RelationshipDisplayService--><a href="RelationshipDisplayService.html" target="_top" xlink:actuate="onRequest" xlink:show="new" xlink:title="RelationshipDisplayService.html" xlink:type="simple"><rect fill="#FEFECE" filter="url(#fzlypyu58sj0q)" height="60.8047" id="com.envibe.envibe.service.RelationshipDisplayService" style="stroke: #A80036; stroke-width: 1.5;" width="210" x="334" y="298"/><ellipse cx="354.4" cy="314" fill="#ADD1B2" rx="11" ry="11" style="stroke: #A80036; stroke-width: 1.0;"/><path d="M357.3688,319.6406 Q356.7906,319.9375 356.15,320.0781 Q355.5094,320.2344 354.8063,320.2344 Q352.3063,320.2344 350.9781,318.5938 Q349.6656,316.9375 349.6656,313.8125 Q349.6656,310.6875 350.9781,309.0313 Q352.3063,307.375 354.8063,307.375 Q355.5094,307.375 356.15,307.5313 Q356.8063,307.6875 357.3688,307.9844 L357.3688,310.7031 Q356.7438,310.125 356.15,309.8594 Q355.5563,309.5781 354.9313,309.5781 Q353.5875,309.5781 352.9,310.6563 Q352.2125,311.7188 352.2125,313.8125 Q352.2125,315.9063 352.9,316.9844 Q353.5875,318.0469 354.9313,318.0469 Q355.5563,318.0469 356.15,317.7813 Q356.7438,317.5 357.3688,316.9219 L357.3688,319.6406 Z "/><text fill="#000000" font-family="sans-serif" font-size="12" lengthAdjust="spacingAndGlyphs" textLength="166" x="369.6" y="318.1543">RelationshipDisplayService</text><line style="stroke: #A80036; stroke-width: 1.5;" x1="335" x2="543" y1="330" y2="330"/><line style="stroke: #A80036; stroke-width: 1.5;" x1="335" x2="543" y1="338" y2="338"/><ellipse cx="345" cy="349.9023" fill="#84BE84" rx="3" ry="3" style="stroke: #038048; stroke-width: 1.0;"/><text fill="#000000" font-family="sans-serif" font-size="11" lengthAdjust="spacingAndGlyphs" textLength="184" x="354" y="352.2104">FriendsList(String): List&lt;String&gt;</text></a><!--class org.springframework.security.core.userdetails.UserDetailsService--><rect fill="#FEFECE" filter="url(#fzlypyu58sj0q)" height="60.8047" id="org.springframework.security.core.userdetails.UserDetailsService" style="stroke: #A80036; stroke-width: 1.5;" width="266" x="22" y="43"/><ellipse cx="92.25" cy="59" fill="#B4A7E5" rx="11" ry="11" style="stroke: #A80036; stroke-width: 1.0;"/><path d="M88.1719,54.7656 L88.1719,52.6094 L95.5625,52.6094 L95.5625,54.7656 L93.0938,54.7656 L93.0938,62.8438 L95.5625,62.8438 L95.5625,65 L88.1719,65 L88.1719,62.8438 L90.6406,62.8438 L90.6406,54.7656 L88.1719,54.7656 Z "/><text fill="#000000" font-family="sans-serif" font-size="12" font-style="italic" lengthAdjust="spacingAndGlyphs" textLength="117" x="112.75" y="63.1543">UserDetailsService</text><line style="stroke: #A80036; stroke-width: 1.5;" x1="23" x2="287" y1="75" y2="75"/><line style="stroke: #A80036; stroke-width: 1.5;" x1="23" x2="287" y1="83" y2="83"/><ellipse cx="33" cy="94.9023" fill="#84BE84" rx="3" ry="3" style="stroke: #038048; stroke-width: 1.0;"/><text fill="#000000" font-family="sans-serif" font-size="11" font-style="italic" lengthAdjust="spacingAndGlyphs" textLength="240" x="42" y="97.2104">loadUserByUsername(String): UserDetails</text><!--link org.springframework.security.core.userdetails.UserDetailsService to com.envibe.envibe.service.UserAuthService--><path d="M155,124.2355 C155,139.809 155,156.4647 155,170.2679 " fill="none" id="org.springframework.security.core.userdetails.UserDetailsService-com.envibe.envibe.service.UserAuthService" style="stroke: #A80036; stroke-width: 1.0; stroke-dasharray: 7.0,7.0;"/><polygon fill="none" points="148.0001,124.0395,155,104.0394,162.0001,124.0394,148.0001,124.0395" style="stroke: #A80036; stroke-width: 1.0;"/><!--link com.envibe.envibe.service.UserRegistrationService to com.envibe.envibe.service.NewsFeedUpdateService--><!--link com.envibe.envibe.service.UserRegistrationService to com.envibe.envibe.service.RelationshipDisplayService--><text fill="#888888" font-family="sans-serif" font-size="10" lengthAdjust="spacingAndGlyphs" textLength="186" x="312.5" y="394.2822">UMLDoclet 1.1.4, PlantUML 1.2019.05</text><!--
@startuml

    namespace com.envibe.envibe.service {

        class UserRegistrationService [[UserRegistrationService.html]] {
            +registerNewUserAccount(User): void
        }

        class UserAuthService [[UserAuthService.html]] {
            +loadUserByUsername(String): UserDetails
        }

        class NewsFeedUpdateService [[NewsFeedUpdateService.html]] {
            +triggerWorker(int): void
            +dismantle(): void
        }

        class RelationshipDisplayService [[RelationshipDisplayService.html]] {
            +FriendsList(String): List<String>
        }

        interface org.springframework.security.core.userdetails.UserDetailsService {
            {abstract} +loadUserByUsername(String): UserDetails
        }
        org.springframework.security.core.userdetails.UserDetailsService <|.. UserAuthService

    }


    center footer UMLDoclet 1.1.4, PlantUML 1.2019.05
@enduml

PlantUML version 1.2019.05(Sat Apr 20 16:45:36 UTC 2019)
(APACHE source distribution)
Java Runtime: OpenJDK Runtime Environment
JVM: OpenJDK 64-Bit Server VM
Java Version: 1.8.0_242-b08
Operating System: Linux
OS Version: 5.0.0-1031-gcp
Default Encoding: UTF-8
Language: en
Country: US
--></g></svg>