<?xml version="1.0" encoding="UTF-8" standalone="no"?><svg xmlns="http://www.w3.org/2000/svg" xmlns:xlink="http://www.w3.org/1999/xlink" contentScriptType="application/ecmascript" contentStyleType="text/css" height="101px" preserveAspectRatio="none" style="width:227px;height:101px;" version="1.1" viewBox="0 0 227 101" width="227px" zoomAndPan="magnify"><defs><filter height="300%" id="f1teph7o9pq5dt" width="300%" x="-1" y="-1"><feGaussianBlur result="blurOut" stdDeviation="2.0"/><feColorMatrix in="blurOut" result="blurOut2" type="matrix" values="0 0 0 0 0 0 0 0 0 0 0 0 0 0 0 0 0 0 .4 0"/><feOffset dx="4.0" dy="4.0" in="blurOut2" result="blurOut3"/><feBlend in="SourceGraphic" in2="blurOut3" mode="normal"/></filter></defs><g><!--class RelationshipDisplayService--><a href="RelationshipDisplayService.html" target="_top" xlink:actuate="onRequest" xlink:show="new" xlink:title="RelationshipDisplayService.html" xlink:type="simple"><rect fill="#FEFECE" filter="url(#f1teph7o9pq5dt)" height="60.8047" id="RelationshipDisplayService" style="stroke: #A80036; stroke-width: 1.5;" width="210" x="6" y="8"/><ellipse cx="26.4" cy="24" fill="#ADD1B2" rx="11" ry="11" style="stroke: #A80036; stroke-width: 1.0;"/><path d="M29.3688,29.6406 Q28.7906,29.9375 28.15,30.0781 Q27.5094,30.2344 26.8063,30.2344 Q24.3063,30.2344 22.9781,28.5938 Q21.6656,26.9375 21.6656,23.8125 Q21.6656,20.6875 22.9781,19.0313 Q24.3063,17.375 26.8063,17.375 Q27.5094,17.375 28.15,17.5313 Q28.8063,17.6875 29.3688,17.9844 L29.3688,20.7031 Q28.7438,20.125 28.15,19.8594 Q27.5563,19.5781 26.9313,19.5781 Q25.5875,19.5781 24.9,20.6563 Q24.2125,21.7188 24.2125,23.8125 Q24.2125,25.9063 24.9,26.9844 Q25.5875,28.0469 26.9313,28.0469 Q27.5563,28.0469 28.15,27.7813 Q28.7438,27.5 29.3688,26.9219 L29.3688,29.6406 Z "/><text fill="#000000" font-family="sans-serif" font-size="12" lengthAdjust="spacingAndGlyphs" textLength="166" x="41.6" y="28.1543">RelationshipDisplayService</text><line style="stroke: #A80036; stroke-width: 1.5;" x1="7" x2="215" y1="40" y2="40"/><line style="stroke: #A80036; stroke-width: 1.5;" x1="7" x2="215" y1="48" y2="48"/><ellipse cx="17" cy="59.9023" fill="#84BE84" rx="3" ry="3" style="stroke: #038048; stroke-width: 1.0;"/><text fill="#000000" font-family="sans-serif" font-size="11" lengthAdjust="spacingAndGlyphs" textLength="184" x="26" y="62.2104">FriendsList(String): List&lt;String&gt;</text></a><text fill="#888888" font-family="sans-serif" font-size="10" lengthAdjust="spacingAndGlyphs" textLength="186" x="24" y="88.2822">UMLDoclet 1.1.4, PlantUML 1.2019.05</text><!--
@startuml

    class RelationshipDisplayService [[RelationshipDisplayService.html]] {
        +FriendsList(String): List<String>
    }


    center footer UMLDoclet 1.1.4, PlantUML 1.2019.05
@enduml

PlantUML version 1.2019.05(Sat Apr 20 16:45:36 UTC 2019)
(APACHE source distribution)
Java Runtime: OpenJDK Runtime Environment
JVM: OpenJDK 64-Bit Server VM
Java Version: 1.8.0_242-b08
Operating System: Linux
OS Version: 5.0.0-1031-gcp
Default Encoding: UTF-8
Language: en
Country: US
--></g></svg>