<?xml version="1.0" encoding="UTF-8" standalone="no"?><svg xmlns="http://www.w3.org/2000/svg" xmlns:xlink="http://www.w3.org/1999/xlink" contentScriptType="application/ecmascript" contentStyleType="text/css" height="101px" preserveAspectRatio="none" style="width:249px;height:101px;" version="1.1" viewBox="0 0 249 101" width="249px" zoomAndPan="magnify"><defs><filter height="300%" id="f1gpo4ywgo8w7e" width="300%" x="-1" y="-1"><feGaussianBlur result="blurOut" stdDeviation="2.0"/><feColorMatrix in="blurOut" result="blurOut2" type="matrix" values="0 0 0 0 0 0 0 0 0 0 0 0 0 0 0 0 0 0 .4 0"/><feOffset dx="4.0" dy="4.0" in="blurOut2" result="blurOut3"/><feBlend in="SourceGraphic" in2="blurOut3" mode="normal"/></filter></defs><g><!--class UserRegistrationService--><a href="UserRegistrationService.html" target="_top" xlink:actuate="onRequest" xlink:show="new" xlink:title="UserRegistrationService.html" xlink:type="simple"><rect fill="#FEFECE" filter="url(#f1gpo4ywgo8w7e)" height="60.8047" id="UserRegistrationService" style="stroke: #A80036; stroke-width: 1.5;" width="232" x="6" y="8"/><ellipse cx="43.5" cy="24" fill="#ADD1B2" rx="11" ry="11" style="stroke: #A80036; stroke-width: 1.0;"/><path d="M46.4688,29.6406 Q45.8906,29.9375 45.25,30.0781 Q44.6094,30.2344 43.9063,30.2344 Q41.4063,30.2344 40.0781,28.5938 Q38.7656,26.9375 38.7656,23.8125 Q38.7656,20.6875 40.0781,19.0313 Q41.4063,17.375 43.9063,17.375 Q44.6094,17.375 45.25,17.5313 Q45.9063,17.6875 46.4688,17.9844 L46.4688,20.7031 Q45.8438,20.125 45.25,19.8594 Q44.6563,19.5781 44.0313,19.5781 Q42.6875,19.5781 42,20.6563 Q41.3125,21.7188 41.3125,23.8125 Q41.3125,25.9063 42,26.9844 Q42.6875,28.0469 44.0313,28.0469 Q44.6563,28.0469 45.25,27.7813 Q45.8438,27.5 46.4688,26.9219 L46.4688,29.6406 Z "/><text fill="#000000" font-family="sans-serif" font-size="12" lengthAdjust="spacingAndGlyphs" textLength="150" x="62.5" y="28.1543">UserRegistrationService</text><line style="stroke: #A80036; stroke-width: 1.5;" x1="7" x2="237" y1="40" y2="40"/><line style="stroke: #A80036; stroke-width: 1.5;" x1="7" x2="237" y1="48" y2="48"/><ellipse cx="17" cy="59.9023" fill="#84BE84" rx="3" ry="3" style="stroke: #038048; stroke-width: 1.0;"/><text fill="#000000" font-family="sans-serif" font-size="11" lengthAdjust="spacingAndGlyphs" textLength="206" x="26" y="62.2104">registerNewUserAccount(User): void</text></a><text fill="#888888" font-family="sans-serif" font-size="10" lengthAdjust="spacingAndGlyphs" textLength="186" x="35" y="88.2822">UMLDoclet 1.1.4, PlantUML 1.2019.05</text><!--
@startuml

    class UserRegistrationService [[UserRegistrationService.html]] {
        +registerNewUserAccount(User): void
    }


    center footer UMLDoclet 1.1.4, PlantUML 1.2019.05
@enduml

PlantUML version 1.2019.05(Sat Apr 20 16:45:36 UTC 2019)
(APACHE source distribution)
Java Runtime: OpenJDK Runtime Environment
JVM: OpenJDK 64-Bit Server VM
Java Version: 1.8.0_242-b08
Operating System: Linux
OS Version: 5.0.0-1031-gcp
Default Encoding: UTF-8
Language: en
Country: US
--></g></svg>