<?xml version="1.0" encoding="UTF-8" standalone="no"?><svg xmlns="http://www.w3.org/2000/svg" xmlns:xlink="http://www.w3.org/1999/xlink" contentScriptType="application/ecmascript" contentStyleType="text/css" height="285px" preserveAspectRatio="none" style="width:715px;height:285px;" version="1.1" viewBox="0 0 715 285" width="715px" zoomAndPan="magnify"><defs><filter height="300%" id="f1dphcm1g65wyo" width="300%" x="-1" y="-1"><feGaussianBlur result="blurOut" stdDeviation="2.0"/><feColorMatrix in="blurOut" result="blurOut2" type="matrix" values="0 0 0 0 0 0 0 0 0 0 0 0 0 0 0 0 0 0 .4 0"/><feOffset dx="4.0" dy="4.0" in="blurOut2" result="blurOut3"/><feBlend in="SourceGraphic" in2="blurOut3" mode="normal"/></filter></defs><g><!--cluster com.envibe.envibe.config--><polygon fill="#FFFFFF" filter="url(#f1dphcm1g65wyo)" points="14,124,223,124,230,146.2969,693,146.2969,693,245,14,245,14,124" style="stroke: #000000; stroke-width: 1.5;"/><line style="stroke: #000000; stroke-width: 1.5;" x1="14" x2="230" y1="146.2969" y2="146.2969"/><text fill="#000000" font-family="sans-serif" font-size="14" font-weight="bold" lengthAdjust="spacingAndGlyphs" textLength="203" x="18" y="138.9951">com.envibe.envibe.config</text><!--cluster org.springframework.security.config.annotation.web.configuration--><polygon fill="#FFFFFF" filter="url(#f1dphcm1g65wyo)" points="39,16,574,16,581,38.2969,584,38.2969,584,99,39,99,39,16" style="stroke: #000000; stroke-width: 1.5;"/><line style="stroke: #000000; stroke-width: 1.5;" x1="39" x2="581" y1="38.2969" y2="38.2969"/><text fill="#000000" font-family="sans-serif" font-size="14" font-weight="bold" lengthAdjust="spacingAndGlyphs" textLength="529" x="43" y="30.9951">org.springframework.security.config.annotation.web.configuration</text><!--class com.envibe.envibe.config.RedisConfig--><a href="RedisConfig.html" target="_top" xlink:actuate="onRequest" xlink:show="new" xlink:title="RedisConfig.html" xlink:type="simple"><rect fill="#FEFECE" filter="url(#f1dphcm1g65wyo)" height="73.6094" id="com.envibe.envibe.config.RedisConfig" style="stroke: #A80036; stroke-width: 1.5;" width="304" x="381" y="157"/><ellipse cx="492.25" cy="173" fill="#ADD1B2" rx="11" ry="11" style="stroke: #A80036; stroke-width: 1.0;"/><path d="M495.2188,178.6406 Q494.6406,178.9375 494,179.0781 Q493.3594,179.2344 492.6563,179.2344 Q490.1563,179.2344 488.8281,177.5938 Q487.5156,175.9375 487.5156,172.8125 Q487.5156,169.6875 488.8281,168.0313 Q490.1563,166.375 492.6563,166.375 Q493.3594,166.375 494,166.5313 Q494.6563,166.6875 495.2188,166.9844 L495.2188,169.7031 Q494.5938,169.125 494,168.8594 Q493.4063,168.5781 492.7813,168.5781 Q491.4375,168.5781 490.75,169.6563 Q490.0625,170.7188 490.0625,172.8125 Q490.0625,174.9063 490.75,175.9844 Q491.4375,177.0469 492.7813,177.0469 Q493.4063,177.0469 494,176.7813 Q494.5938,176.5 495.2188,175.9219 L495.2188,178.6406 Z "/><text fill="#000000" font-family="sans-serif" font-size="12" lengthAdjust="spacingAndGlyphs" textLength="73" x="512.75" y="177.1543">RedisConfig</text><line style="stroke: #A80036; stroke-width: 1.5;" x1="382" x2="684" y1="189" y2="189"/><line style="stroke: #A80036; stroke-width: 1.5;" x1="382" x2="684" y1="197" y2="197"/><ellipse cx="392" cy="208.9023" fill="#84BE84" rx="3" ry="3" style="stroke: #038048; stroke-width: 1.0;"/><text fill="#000000" font-family="sans-serif" font-size="11" lengthAdjust="spacingAndGlyphs" textLength="278" x="401" y="211.2104">jedisConnectionFactory(): JedisConnectionFactory</text><ellipse cx="392" cy="221.707" fill="#84BE84" rx="3" ry="3" style="stroke: #038048; stroke-width: 1.0;"/><text fill="#000000" font-family="sans-serif" font-size="11" lengthAdjust="spacingAndGlyphs" textLength="278" x="401" y="224.0151">redisTemplate(): RedisTemplate&lt;String, Object&gt;</text></a><!--class com.envibe.envibe.config.SecurityConfig--><a href="SecurityConfig.html" target="_top" xlink:actuate="onRequest" xlink:show="new" xlink:title="SecurityConfig.html" xlink:type="simple"><rect fill="#FEFECE" filter="url(#f1dphcm1g65wyo)" height="86.4141" id="com.envibe.envibe.config.SecurityConfig" style="stroke: #A80036; stroke-width: 1.5;" width="323" x="22.5" y="151"/><ellipse cx="135.25" cy="167" fill="#ADD1B2" rx="11" ry="11" style="stroke: #A80036; stroke-width: 1.0;"/><path d="M138.2188,172.6406 Q137.6406,172.9375 137,173.0781 Q136.3594,173.2344 135.6563,173.2344 Q133.1563,173.2344 131.8281,171.5938 Q130.5156,169.9375 130.5156,166.8125 Q130.5156,163.6875 131.8281,162.0313 Q133.1563,160.375 135.6563,160.375 Q136.3594,160.375 137,160.5313 Q137.6563,160.6875 138.2188,160.9844 L138.2188,163.7031 Q137.5938,163.125 137,162.8594 Q136.4063,162.5781 135.7813,162.5781 Q134.4375,162.5781 133.75,163.6563 Q133.0625,164.7188 133.0625,166.8125 Q133.0625,168.9063 133.75,169.9844 Q134.4375,171.0469 135.7813,171.0469 Q136.4063,171.0469 137,170.7813 Q137.5938,170.5 138.2188,169.9219 L138.2188,172.6406 Z "/><text fill="#000000" font-family="sans-serif" font-size="12" lengthAdjust="spacingAndGlyphs" textLength="89" x="155.75" y="171.1543">SecurityConfig</text><line style="stroke: #A80036; stroke-width: 1.5;" x1="23.5" x2="344.5" y1="183" y2="183"/><line style="stroke: #A80036; stroke-width: 1.5;" x1="23.5" x2="344.5" y1="191" y2="191"/><ellipse cx="33.5" cy="202.9023" fill="#84BE84" rx="3" ry="3" style="stroke: #038048; stroke-width: 1.0;"/><text fill="#000000" font-family="sans-serif" font-size="11" lengthAdjust="spacingAndGlyphs" textLength="297" x="42.5" y="205.2104">configureGlobal(AuthenticationManagerBuilder): void</text><polygon fill="#FFFF44" points="33.5,210.707,37.5,214.707,33.5,218.707,29.5,214.707" style="stroke: #B38D22; stroke-width: 1.0;"/><text fill="#000000" font-family="sans-serif" font-size="11" lengthAdjust="spacingAndGlyphs" textLength="161" x="42.5" y="218.0151">configure(HttpSecurity): void</text><ellipse cx="33.5" cy="228.5117" fill="#84BE84" rx="3" ry="3" style="stroke: #038048; stroke-width: 1.0;"/><text fill="#000000" font-family="sans-serif" font-size="11" lengthAdjust="spacingAndGlyphs" textLength="220" x="42.5" y="230.8198">passwordEncoder(): PasswordEncoder</text></a><!--class org.springframework.security.config.annotation.web.configuration.WebSecurityConfigurerAdapter--><rect fill="#FEFECE" filter="url(#f1dphcm1g65wyo)" height="48" id="org.springframework.security.config.annotation.web.configuration.WebSecurityConfigurerAdapter" style="stroke: #A80036; stroke-width: 1.5;" width="224" x="72" y="43"/><ellipse cx="87" cy="59" fill="#A9DCDF" rx="11" ry="11" style="stroke: #A80036; stroke-width: 1.0;"/><path d="M87.1094,54.3438 L85.9531,59.4219 L88.2813,59.4219 L87.1094,54.3438 Z M85.625,52.1094 L88.6094,52.1094 L91.9688,64.5 L89.5156,64.5 L88.75,61.4375 L85.4688,61.4375 L84.7188,64.5 L82.2813,64.5 L85.625,52.1094 Z "/><text fill="#000000" font-family="sans-serif" font-size="12" font-style="italic" lengthAdjust="spacingAndGlyphs" textLength="192" x="101" y="63.1543">WebSecurityConfigurerAdapter</text><line style="stroke: #A80036; stroke-width: 1.5;" x1="73" x2="295" y1="75" y2="75"/><line style="stroke: #A80036; stroke-width: 1.5;" x1="73" x2="295" y1="83" y2="83"/><!--link org.springframework.security.config.annotation.web.configuration.WebSecurityConfigurerAdapter to com.envibe.envibe.config.SecurityConfig--><path d="M184,111.2782 C184,124.1161 184,138.1115 184,150.8776 " fill="none" id="org.springframework.security.config.annotation.web.configuration.WebSecurityConfigurerAdapter-com.envibe.envibe.config.SecurityConfig" style="stroke: #A80036; stroke-width: 1.0;"/><polygon fill="none" points="177.0001,111.1867,184,91.1867,191.0001,111.1866,177.0001,111.1867" style="stroke: #A80036; stroke-width: 1.0;"/><text fill="#888888" font-family="sans-serif" font-size="10" lengthAdjust="spacingAndGlyphs" textLength="186" x="266.5" y="272.2822">UMLDoclet 1.1.4, PlantUML 1.2019.05</text><!--
@startuml

    namespace com.envibe.envibe.config {

        class RedisConfig [[RedisConfig.html]] {
            +jedisConnectionFactory(): JedisConnectionFactory
            +redisTemplate(): RedisTemplate<String, Object>
        }

        class SecurityConfig [[SecurityConfig.html]] {
            +configureGlobal(AuthenticationManagerBuilder): void
            #configure(HttpSecurity): void
            +passwordEncoder(): PasswordEncoder
        }

        abstract class org.springframework.security.config.annotation.web.configuration.WebSecurityConfigurerAdapter
        org.springframework.security.config.annotation.web.configuration.WebSecurityConfigurerAdapter <|- - SecurityConfig

    }


    center footer UMLDoclet 1.1.4, PlantUML 1.2019.05
@enduml

PlantUML version 1.2019.05(Sat Apr 20 16:45:36 UTC 2019)
(APACHE source distribution)
Java Runtime: OpenJDK Runtime Environment
JVM: OpenJDK 64-Bit Server VM
Java Version: 1.8.0_242-b08
Operating System: Linux
OS Version: 5.0.0-1031-gcp
Default Encoding: UTF-8
Language: en
Country: US
--></g></svg>