<?xml version="1.0" encoding="UTF-8" standalone="no"?><svg xmlns="http://www.w3.org/2000/svg" xmlns:xlink="http://www.w3.org/1999/xlink" contentScriptType="application/ecmascript" contentStyleType="text/css" height="126px" preserveAspectRatio="none" style="width:340px;height:126px;" version="1.1" viewBox="0 0 340 126" width="340px" zoomAndPan="magnify"><defs><filter height="300%" id="flafmluy2bc7f" width="300%" x="-1" y="-1"><feGaussianBlur result="blurOut" stdDeviation="2.0"/><feColorMatrix in="blurOut" result="blurOut2" type="matrix" values="0 0 0 0 0 0 0 0 0 0 0 0 0 0 0 0 0 0 .4 0"/><feOffset dx="4.0" dy="4.0" in="blurOut2" result="blurOut3"/><feBlend in="SourceGraphic" in2="blurOut3" mode="normal"/></filter></defs><g><!--class SecurityConfig--><a href="SecurityConfig.html" target="_top" xlink:actuate="onRequest" xlink:show="new" xlink:title="SecurityConfig.html" xlink:type="simple"><rect fill="#FEFECE" filter="url(#flafmluy2bc7f)" height="86.4141" id="SecurityConfig" style="stroke: #A80036; stroke-width: 1.5;" width="323" x="6" y="8"/><ellipse cx="118.75" cy="24" fill="#ADD1B2" rx="11" ry="11" style="stroke: #A80036; stroke-width: 1.0;"/><path d="M121.7188,29.6406 Q121.1406,29.9375 120.5,30.0781 Q119.8594,30.2344 119.1563,30.2344 Q116.6563,30.2344 115.3281,28.5938 Q114.0156,26.9375 114.0156,23.8125 Q114.0156,20.6875 115.3281,19.0313 Q116.6563,17.375 119.1563,17.375 Q119.8594,17.375 120.5,17.5313 Q121.1563,17.6875 121.7188,17.9844 L121.7188,20.7031 Q121.0938,20.125 120.5,19.8594 Q119.9063,19.5781 119.2813,19.5781 Q117.9375,19.5781 117.25,20.6563 Q116.5625,21.7188 116.5625,23.8125 Q116.5625,25.9063 117.25,26.9844 Q117.9375,28.0469 119.2813,28.0469 Q119.9063,28.0469 120.5,27.7813 Q121.0938,27.5 121.7188,26.9219 L121.7188,29.6406 Z "/><text fill="#000000" font-family="sans-serif" font-size="12" lengthAdjust="spacingAndGlyphs" textLength="89" x="139.25" y="28.1543">SecurityConfig</text><line style="stroke: #A80036; stroke-width: 1.5;" x1="7" x2="328" y1="40" y2="40"/><line style="stroke: #A80036; stroke-width: 1.5;" x1="7" x2="328" y1="48" y2="48"/><ellipse cx="17" cy="59.9023" fill="#84BE84" rx="3" ry="3" style="stroke: #038048; stroke-width: 1.0;"/><text fill="#000000" font-family="sans-serif" font-size="11" lengthAdjust="spacingAndGlyphs" textLength="297" x="26" y="62.2104">configureGlobal(AuthenticationManagerBuilder): void</text><polygon fill="#FFFF44" points="17,67.707,21,71.707,17,75.707,13,71.707" style="stroke: #B38D22; stroke-width: 1.0;"/><text fill="#000000" font-family="sans-serif" font-size="11" lengthAdjust="spacingAndGlyphs" textLength="161" x="26" y="75.0151">configure(HttpSecurity): void</text><ellipse cx="17" cy="85.5117" fill="#84BE84" rx="3" ry="3" style="stroke: #038048; stroke-width: 1.0;"/><text fill="#000000" font-family="sans-serif" font-size="11" lengthAdjust="spacingAndGlyphs" textLength="220" x="26" y="87.8198">passwordEncoder(): PasswordEncoder</text></a><text fill="#888888" font-family="sans-serif" font-size="10" lengthAdjust="spacingAndGlyphs" textLength="186" x="80.5" y="113.2822">UMLDoclet 1.1.4, PlantUML 1.2019.05</text><!--
@startuml

    class SecurityConfig [[SecurityConfig.html]] {
        +configureGlobal(AuthenticationManagerBuilder): void
        #configure(HttpSecurity): void
        +passwordEncoder(): PasswordEncoder
    }


    center footer UMLDoclet 1.1.4, PlantUML 1.2019.05
@enduml

PlantUML version 1.2019.05(Sat Apr 20 16:45:36 UTC 2019)
(APACHE source distribution)
Java Runtime: OpenJDK Runtime Environment
JVM: OpenJDK 64-Bit Server VM
Java Version: 1.8.0_242-b08
Operating System: Linux
OS Version: 5.0.0-1031-gcp
Default Encoding: UTF-8
Language: en
Country: US
--></g></svg>