<?xml version="1.0" encoding="UTF-8" standalone="no"?><svg xmlns="http://www.w3.org/2000/svg" xmlns:xlink="http://www.w3.org/1999/xlink" contentScriptType="application/ecmascript" contentStyleType="text/css" height="260px" preserveAspectRatio="none" style="width:284px;height:260px;" version="1.1" viewBox="0 0 284 260" width="284px" zoomAndPan="magnify"><defs><filter height="300%" id="f1kr66p0y157mn" width="300%" x="-1" y="-1"><feGaussianBlur result="blurOut" stdDeviation="2.0"/><feColorMatrix in="blurOut" result="blurOut2" type="matrix" values="0 0 0 0 0 0 0 0 0 0 0 0 0 0 0 0 0 0 .4 0"/><feOffset dx="4.0" dy="4.0" in="blurOut2" result="blurOut3"/><feBlend in="SourceGraphic" in2="blurOut3" mode="normal"/></filter></defs><g><!--cluster com.envibe.envibe.exception--><polygon fill="#FFFFFF" filter="url(#f1kr66p0y157mn)" points="14,124,252,124,259,146.2969,262,146.2969,262,220,14,220,14,124" style="stroke: #000000; stroke-width: 1.5;"/><line style="stroke: #000000; stroke-width: 1.5;" x1="14" x2="259" y1="146.2969" y2="146.2969"/><text fill="#000000" font-family="sans-serif" font-size="14" font-weight="bold" lengthAdjust="spacingAndGlyphs" textLength="232" x="18" y="138.9951">com.envibe.envibe.exception</text><!--cluster java.lang--><polygon fill="#FFFFFF" filter="url(#f1kr66p0y157mn)" points="84,16,159,16,166,38.2969,192,38.2969,192,99,84,99,84,16" style="stroke: #000000; stroke-width: 1.5;"/><line style="stroke: #000000; stroke-width: 1.5;" x1="84" x2="166" y1="38.2969" y2="38.2969"/><text fill="#000000" font-family="sans-serif" font-size="14" font-weight="bold" lengthAdjust="spacingAndGlyphs" textLength="69" x="88" y="30.9951">java.lang</text><!--class com.envibe.envibe.exception.UserAlreadyExistsException--><a href="UserAlreadyExistsException.html" target="_top" xlink:actuate="onRequest" xlink:show="new" xlink:title="UserAlreadyExistsException.html" xlink:type="simple"><rect fill="#FEFECE" filter="url(#f1kr66p0y157mn)" height="60.8047" id="com.envibe.envibe.exception.UserAlreadyExistsException" style="stroke: #A80036; stroke-width: 1.5;" width="225" x="25.5" y="151"/><ellipse cx="49.95" cy="167" fill="#ADD1B2" rx="11" ry="11" style="stroke: #A80036; stroke-width: 1.0;"/><path d="M52.9188,172.6406 Q52.3406,172.9375 51.7,173.0781 Q51.0594,173.2344 50.3563,173.2344 Q47.8563,173.2344 46.5281,171.5938 Q45.2156,169.9375 45.2156,166.8125 Q45.2156,163.6875 46.5281,162.0313 Q47.8563,160.375 50.3563,160.375 Q51.0594,160.375 51.7,160.5313 Q52.3563,160.6875 52.9188,160.9844 L52.9188,163.7031 Q52.2938,163.125 51.7,162.8594 Q51.1063,162.5781 50.4813,162.5781 Q49.1375,162.5781 48.45,163.6563 Q47.7625,164.7188 47.7625,166.8125 Q47.7625,168.9063 48.45,169.9844 Q49.1375,171.0469 50.4813,171.0469 Q51.1063,171.0469 51.7,170.7813 Q52.2938,170.5 52.9188,169.9219 L52.9188,172.6406 Z "/><text fill="#000000" font-family="sans-serif" font-size="12" lengthAdjust="spacingAndGlyphs" textLength="172" x="66.05" y="171.1543">UserAlreadyExistsException</text><line style="stroke: #A80036; stroke-width: 1.5;" x1="26.5" x2="249.5" y1="183" y2="183"/><line style="stroke: #A80036; stroke-width: 1.5;" x1="26.5" x2="249.5" y1="191" y2="191"/><ellipse cx="36.5" cy="202.9023" fill="#84BE84" rx="3" ry="3" style="stroke: #038048; stroke-width: 1.0;"/><text fill="#000000" font-family="sans-serif" font-size="11" lengthAdjust="spacingAndGlyphs" textLength="199" x="45.5" y="205.2104">UserAlreadyExistsException(String)</text></a><!--class java.lang.Exception--><rect fill="#FEFECE" filter="url(#f1kr66p0y157mn)" height="48" id="java.lang.Exception" style="stroke: #A80036; stroke-width: 1.5;" width="93" x="91.5" y="43"/><ellipse cx="106.5" cy="59" fill="#ADD1B2" rx="11" ry="11" style="stroke: #A80036; stroke-width: 1.0;"/><path d="M109.4688,64.6406 Q108.8906,64.9375 108.25,65.0781 Q107.6094,65.2344 106.9063,65.2344 Q104.4063,65.2344 103.0781,63.5938 Q101.7656,61.9375 101.7656,58.8125 Q101.7656,55.6875 103.0781,54.0313 Q104.4063,52.375 106.9063,52.375 Q107.6094,52.375 108.25,52.5313 Q108.9063,52.6875 109.4688,52.9844 L109.4688,55.7031 Q108.8438,55.125 108.25,54.8594 Q107.6563,54.5781 107.0313,54.5781 Q105.6875,54.5781 105,55.6563 Q104.3125,56.7188 104.3125,58.8125 Q104.3125,60.9063 105,61.9844 Q105.6875,63.0469 107.0313,63.0469 Q107.6563,63.0469 108.25,62.7813 Q108.8438,62.5 109.4688,61.9219 L109.4688,64.6406 Z "/><text fill="#000000" font-family="sans-serif" font-size="12" lengthAdjust="spacingAndGlyphs" textLength="61" x="120.5" y="63.1543">Exception</text><line style="stroke: #A80036; stroke-width: 1.5;" x1="92.5" x2="183.5" y1="75" y2="75"/><line style="stroke: #A80036; stroke-width: 1.5;" x1="92.5" x2="183.5" y1="83" y2="83"/><!--link java.lang.Exception to com.envibe.envibe.exception.UserAlreadyExistsException--><path d="M138,111.2477 C138,124.5296 138,138.7972 138,150.9818 " fill="none" id="java.lang.Exception-com.envibe.envibe.exception.UserAlreadyExistsException" style="stroke: #A80036; stroke-width: 1.0;"/><polygon fill="none" points="131.0001,111.003,138,91.003,145.0001,111.0029,131.0001,111.003" style="stroke: #A80036; stroke-width: 1.0;"/><text fill="#888888" font-family="sans-serif" font-size="10" lengthAdjust="spacingAndGlyphs" textLength="186" x="51" y="247.2822">UMLDoclet 1.1.4, PlantUML 1.2019.05</text><!--
@startuml

    namespace com.envibe.envibe.exception {

        class UserAlreadyExistsException [[UserAlreadyExistsException.html]] {
            +UserAlreadyExistsException(String)
        }

        class java.lang.Exception
        java.lang.Exception <|- - UserAlreadyExistsException

    }


    center footer UMLDoclet 1.1.4, PlantUML 1.2019.05
@enduml

PlantUML version 1.2019.05(Sat Apr 20 16:45:36 UTC 2019)
(APACHE source distribution)
Java Runtime: OpenJDK Runtime Environment
JVM: OpenJDK 64-Bit Server VM
Java Version: 1.8.0_242-b08
Operating System: Linux
OS Version: 5.0.0-1031-gcp
Default Encoding: UTF-8
Language: en
Country: US
--></g></svg>