<?xml version="1.0" encoding="UTF-8" standalone="no"?><svg xmlns="http://www.w3.org/2000/svg" xmlns:xlink="http://www.w3.org/1999/xlink" contentScriptType="application/ecmascript" contentStyleType="text/css" height="273px" preserveAspectRatio="none" style="width:263px;height:273px;" version="1.1" viewBox="0 0 263 273" width="263px" zoomAndPan="magnify"><defs><filter height="300%" id="f1cvcp7ucxynba" width="300%" x="-1" y="-1"><feGaussianBlur result="blurOut" stdDeviation="2.0"/><feColorMatrix in="blurOut" result="blurOut2" type="matrix" values="0 0 0 0 0 0 0 0 0 0 0 0 0 0 0 0 0 0 .4 0"/><feOffset dx="4.0" dy="4.0" in="blurOut2" result="blurOut3"/><feBlend in="SourceGraphic" in2="blurOut3" mode="normal"/></filter></defs><g><!--cluster com.envibe.envibe.worker--><polygon fill="#FFFFFF" filter="url(#f1cvcp7ucxynba)" points="14,137,231,137,238,159.2969,241,159.2969,241,233,14,233,14,137" style="stroke: #000000; stroke-width: 1.5;"/><line style="stroke: #000000; stroke-width: 1.5;" x1="14" x2="238" y1="159.2969" y2="159.2969"/><text fill="#000000" font-family="sans-serif" font-size="14" font-weight="bold" lengthAdjust="spacingAndGlyphs" textLength="211" x="18" y="151.9951">com.envibe.envibe.worker</text><!--cluster java.lang--><polygon fill="#FFFFFF" filter="url(#f1cvcp7ucxynba)" points="73,16,148,16,155,38.2969,181,38.2969,181,112,73,112,73,16" style="stroke: #000000; stroke-width: 1.5;"/><line style="stroke: #000000; stroke-width: 1.5;" x1="73" x2="155" y1="38.2969" y2="38.2969"/><text fill="#000000" font-family="sans-serif" font-size="14" font-weight="bold" lengthAdjust="spacingAndGlyphs" textLength="69" x="77" y="30.9951">java.lang</text><!--class com.envibe.envibe.worker.NewsFeedUpdateWorker--><a href="NewsFeedUpdateWorker.html" target="_top" xlink:actuate="onRequest" xlink:show="new" xlink:title="NewsFeedUpdateWorker.html" xlink:type="simple"><rect fill="#FEFECE" filter="url(#f1cvcp7ucxynba)" height="60.8047" id="com.envibe.envibe.worker.NewsFeedUpdateWorker" style="stroke: #A80036; stroke-width: 1.5;" width="186" x="34" y="164"/><ellipse cx="49" cy="180" fill="#ADD1B2" rx="11" ry="11" style="stroke: #A80036; stroke-width: 1.0;"/><path d="M51.9688,185.6406 Q51.3906,185.9375 50.75,186.0781 Q50.1094,186.2344 49.4063,186.2344 Q46.9063,186.2344 45.5781,184.5938 Q44.2656,182.9375 44.2656,179.8125 Q44.2656,176.6875 45.5781,175.0313 Q46.9063,173.375 49.4063,173.375 Q50.1094,173.375 50.75,173.5313 Q51.4063,173.6875 51.9688,173.9844 L51.9688,176.7031 Q51.3438,176.125 50.75,175.8594 Q50.1563,175.5781 49.5313,175.5781 Q48.1875,175.5781 47.5,176.6563 Q46.8125,177.7188 46.8125,179.8125 Q46.8125,181.9063 47.5,182.9844 Q48.1875,184.0469 49.5313,184.0469 Q50.1563,184.0469 50.75,183.7813 Q51.3438,183.5 51.9688,182.9219 L51.9688,185.6406 Z "/><text fill="#000000" font-family="sans-serif" font-size="12" lengthAdjust="spacingAndGlyphs" textLength="154" x="63" y="184.1543">NewsFeedUpdateWorker</text><line style="stroke: #A80036; stroke-width: 1.5;" x1="35" x2="219" y1="196" y2="196"/><line style="stroke: #A80036; stroke-width: 1.5;" x1="35" x2="219" y1="204" y2="204"/><ellipse cx="45" cy="215.9023" fill="#84BE84" rx="3" ry="3" style="stroke: #038048; stroke-width: 1.0;"/><text fill="#000000" font-family="sans-serif" font-size="11" lengthAdjust="spacingAndGlyphs" textLength="58" x="54" y="218.2104">run(): void</text></a><!--class java.lang.Runnable--><rect fill="#FEFECE" filter="url(#f1cvcp7ucxynba)" height="60.8047" id="java.lang.Runnable" style="stroke: #A80036; stroke-width: 1.5;" width="91" x="81.5" y="43"/><ellipse cx="96.5" cy="59" fill="#B4A7E5" rx="11" ry="11" style="stroke: #A80036; stroke-width: 1.0;"/><path d="M92.4219,54.7656 L92.4219,52.6094 L99.8125,52.6094 L99.8125,54.7656 L97.3438,54.7656 L97.3438,62.8438 L99.8125,62.8438 L99.8125,65 L92.4219,65 L92.4219,62.8438 L94.8906,62.8438 L94.8906,54.7656 L92.4219,54.7656 Z "/><text fill="#000000" font-family="sans-serif" font-size="12" font-style="italic" lengthAdjust="spacingAndGlyphs" textLength="59" x="110.5" y="63.1543">Runnable</text><line style="stroke: #A80036; stroke-width: 1.5;" x1="82.5" x2="171.5" y1="75" y2="75"/><line style="stroke: #A80036; stroke-width: 1.5;" x1="82.5" x2="171.5" y1="83" y2="83"/><ellipse cx="92.5" cy="94.9023" fill="#84BE84" rx="3" ry="3" style="stroke: #038048; stroke-width: 1.0;"/><text fill="#000000" font-family="sans-serif" font-size="11" font-style="italic" lengthAdjust="spacingAndGlyphs" textLength="58" x="101.5" y="97.2104">run(): void</text><!--link java.lang.Runnable to com.envibe.envibe.worker.NewsFeedUpdateWorker--><path d="M127,124.2927 C127,137.7857 127,151.9401 127,163.9764 " fill="none" id="java.lang.Runnable-com.envibe.envibe.worker.NewsFeedUpdateWorker" style="stroke: #A80036; stroke-width: 1.0; stroke-dasharray: 7.0,7.0;"/><polygon fill="none" points="120.0001,124.0334,127,104.0334,134.0001,124.0334,120.0001,124.0334" style="stroke: #A80036; stroke-width: 1.0;"/><text fill="#888888" font-family="sans-serif" font-size="10" lengthAdjust="spacingAndGlyphs" textLength="186" x="40.5" y="260.2822">UMLDoclet 1.1.4, PlantUML 1.2019.05</text><!--
@startuml

    namespace com.envibe.envibe.worker {

        class NewsFeedUpdateWorker [[NewsFeedUpdateWorker.html]] {
            +run(): void
        }

        interface java.lang.Runnable {
            {abstract} +run(): void
        }
        java.lang.Runnable <|.. NewsFeedUpdateWorker

    }


    center footer UMLDoclet 1.1.4, PlantUML 1.2019.05
@enduml

PlantUML version 1.2019.05(Sat Apr 20 16:45:36 UTC 2019)
(APACHE source distribution)
Java Runtime: OpenJDK Runtime Environment
JVM: OpenJDK 64-Bit Server VM
Java Version: 1.8.0_242-b08
Operating System: Linux
OS Version: 5.0.0-1031-gcp
Default Encoding: UTF-8
Language: en
Country: US
--></g></svg>