<?xml version="1.0" encoding="UTF-8" standalone="no"?><svg xmlns="http://www.w3.org/2000/svg" xmlns:xlink="http://www.w3.org/1999/xlink" contentScriptType="application/ecmascript" contentStyleType="text/css" height="439px" preserveAspectRatio="none" style="width:556px;height:439px;" version="1.1" viewBox="0 0 556 439" width="556px" zoomAndPan="magnify"><defs><filter height="300%" id="f6htqd7qyca8a" width="300%" x="-1" y="-1"><feGaussianBlur result="blurOut" stdDeviation="2.0"/><feColorMatrix in="blurOut" result="blurOut2" type="matrix" values="0 0 0 0 0 0 0 0 0 0 0 0 0 0 0 0 0 0 .4 0"/><feOffset dx="4.0" dy="4.0" in="blurOut2" result="blurOut3"/><feBlend in="SourceGraphic" in2="blurOut3" mode="normal"/></filter></defs><g><!--cluster com.envibe.envibe.dao--><polygon fill="#FFFFFF" filter="url(#f6htqd7qyca8a)" points="14,16,203,16,210,38.2969,534,38.2969,534,399,14,399,14,16" style="stroke: #000000; stroke-width: 1.5;"/><line style="stroke: #000000; stroke-width: 1.5;" x1="14" x2="210" y1="38.2969" y2="38.2969"/><text fill="#000000" font-family="sans-serif" font-size="14" font-weight="bold" lengthAdjust="spacingAndGlyphs" textLength="183" x="18" y="30.9951">com.envibe.envibe.dao</text><!--class com.envibe.envibe.dao.NewsItemDao--><a href="NewsItemDao.html" target="_top" xlink:actuate="onRequest" xlink:show="new" xlink:title="NewsItemDao.html" xlink:type="simple"><rect fill="#FEFECE" filter="url(#f6htqd7qyca8a)" height="112.0234" id="com.envibe.envibe.dao.NewsItemDao" style="stroke: #A80036; stroke-width: 1.5;" width="196" x="22" y="43"/><ellipse cx="73.25" cy="59" fill="#ADD1B2" rx="11" ry="11" style="stroke: #A80036; stroke-width: 1.0;"/><path d="M76.2188,64.6406 Q75.6406,64.9375 75,65.0781 Q74.3594,65.2344 73.6563,65.2344 Q71.1563,65.2344 69.8281,63.5938 Q68.5156,61.9375 68.5156,58.8125 Q68.5156,55.6875 69.8281,54.0313 Q71.1563,52.375 73.6563,52.375 Q74.3594,52.375 75,52.5313 Q75.6563,52.6875 76.2188,52.9844 L76.2188,55.7031 Q75.5938,55.125 75,54.8594 Q74.4063,54.5781 73.7813,54.5781 Q72.4375,54.5781 71.75,55.6563 Q71.0625,56.7188 71.0625,58.8125 Q71.0625,60.9063 71.75,61.9844 Q72.4375,63.0469 73.7813,63.0469 Q74.4063,63.0469 75,62.7813 Q75.5938,62.5 76.2188,61.9219 L76.2188,64.6406 Z "/><text fill="#000000" font-family="sans-serif" font-size="12" lengthAdjust="spacingAndGlyphs" textLength="85" x="93.75" y="63.1543">NewsItemDao</text><line style="stroke: #A80036; stroke-width: 1.5;" x1="23" x2="217" y1="75" y2="75"/><line style="stroke: #A80036; stroke-width: 1.5;" x1="23" x2="217" y1="83" y2="83"/><ellipse cx="33" cy="94.9023" fill="#84BE84" rx="3" ry="3" style="stroke: #038048; stroke-width: 1.0;"/><text fill="#000000" font-family="sans-serif" font-size="11" lengthAdjust="spacingAndGlyphs" textLength="131" x="42" y="97.2104">create(NewsItem): void</text><ellipse cx="33" cy="107.707" fill="#84BE84" rx="3" ry="3" style="stroke: #038048; stroke-width: 1.0;"/><text fill="#000000" font-family="sans-serif" font-size="11" lengthAdjust="spacingAndGlyphs" textLength="112" x="42" y="110.0151">read(int): NewsItem</text><ellipse cx="33" cy="120.5117" fill="#84BE84" rx="3" ry="3" style="stroke: #038048; stroke-width: 1.0;"/><text fill="#000000" font-family="sans-serif" font-size="11" lengthAdjust="spacingAndGlyphs" textLength="170" x="42" y="122.8198">read(String): List&lt;NewsItem&gt;</text><ellipse cx="33" cy="133.3164" fill="#84BE84" rx="3" ry="3" style="stroke: #038048; stroke-width: 1.0;"/><text fill="#000000" font-family="sans-serif" font-size="11" lengthAdjust="spacingAndGlyphs" textLength="134" x="42" y="135.6245">update(NewsItem): void</text><ellipse cx="33" cy="146.1211" fill="#84BE84" rx="3" ry="3" style="stroke: #038048; stroke-width: 1.0;"/><text fill="#000000" font-family="sans-serif" font-size="11" lengthAdjust="spacingAndGlyphs" textLength="130" x="42" y="148.4292">delete(NewsItem): void</text></a><!--class com.envibe.envibe.dao.FriendDao--><a href="FriendDao.html" target="_top" xlink:actuate="onRequest" xlink:show="new" xlink:title="FriendDao.html" xlink:type="simple"><rect fill="#FEFECE" filter="url(#f6htqd7qyca8a)" height="99.2188" id="com.envibe.envibe.dao.FriendDao" style="stroke: #A80036; stroke-width: 1.5;" width="209" x="253.5" y="49.5"/><ellipse cx="321.75" cy="65.5" fill="#ADD1B2" rx="11" ry="11" style="stroke: #A80036; stroke-width: 1.0;"/><path d="M324.7188,71.1406 Q324.1406,71.4375 323.5,71.5781 Q322.8594,71.7344 322.1563,71.7344 Q319.6563,71.7344 318.3281,70.0938 Q317.0156,68.4375 317.0156,65.3125 Q317.0156,62.1875 318.3281,60.5313 Q319.6563,58.875 322.1563,58.875 Q322.8594,58.875 323.5,59.0313 Q324.1563,59.1875 324.7188,59.4844 L324.7188,62.2031 Q324.0938,61.625 323.5,61.3594 Q322.9063,61.0781 322.2813,61.0781 Q320.9375,61.0781 320.25,62.1563 Q319.5625,63.2188 319.5625,65.3125 Q319.5625,67.4063 320.25,68.4844 Q320.9375,69.5469 322.2813,69.5469 Q322.9063,69.5469 323.5,69.2813 Q324.0938,69 324.7188,68.4219 L324.7188,71.1406 Z "/><text fill="#000000" font-family="sans-serif" font-size="12" lengthAdjust="spacingAndGlyphs" textLength="64" x="342.25" y="69.6543">FriendDao</text><line style="stroke: #A80036; stroke-width: 1.5;" x1="254.5" x2="461.5" y1="81.5" y2="81.5"/><line style="stroke: #A80036; stroke-width: 1.5;" x1="254.5" x2="461.5" y1="89.5" y2="89.5"/><ellipse cx="264.5" cy="101.4023" fill="#84BE84" rx="3" ry="3" style="stroke: #038048; stroke-width: 1.0;"/><text fill="#000000" font-family="sans-serif" font-size="11" lengthAdjust="spacingAndGlyphs" textLength="144" x="273.5" y="103.7104">create(Relationship): void</text><ellipse cx="264.5" cy="114.207" fill="#84BE84" rx="3" ry="3" style="stroke: #038048; stroke-width: 1.0;"/><text fill="#000000" font-family="sans-serif" font-size="11" lengthAdjust="spacingAndGlyphs" textLength="183" x="273.5" y="116.5151">read(String): List&lt;Relationship&gt;</text><ellipse cx="264.5" cy="127.0117" fill="#84BE84" rx="3" ry="3" style="stroke: #038048; stroke-width: 1.0;"/><text fill="#000000" font-family="sans-serif" font-size="11" lengthAdjust="spacingAndGlyphs" textLength="147" x="273.5" y="129.3198">update(Relationship): void</text><ellipse cx="264.5" cy="139.8164" fill="#84BE84" rx="3" ry="3" style="stroke: #038048; stroke-width: 1.0;"/><text fill="#000000" font-family="sans-serif" font-size="11" lengthAdjust="spacingAndGlyphs" textLength="143" x="273.5" y="142.1245">delete(Relationship): void</text></a><!--class com.envibe.envibe.dao.UserDao--><a href="UserDao.html" target="_top" xlink:actuate="onRequest" xlink:show="new" xlink:title="UserDao.html" xlink:type="simple"><rect fill="#FEFECE" filter="url(#f6htqd7qyca8a)" height="99.2188" id="com.envibe.envibe.dao.UserDao" style="stroke: #A80036; stroke-width: 1.5;" width="131" x="22.5" y="253.5"/><ellipse cx="57.75" cy="269.5" fill="#ADD1B2" rx="11" ry="11" style="stroke: #A80036; stroke-width: 1.0;"/><path d="M60.7188,275.1406 Q60.1406,275.4375 59.5,275.5781 Q58.8594,275.7344 58.1563,275.7344 Q55.6563,275.7344 54.3281,274.0938 Q53.0156,272.4375 53.0156,269.3125 Q53.0156,266.1875 54.3281,264.5313 Q55.6563,262.875 58.1563,262.875 Q58.8594,262.875 59.5,263.0313 Q60.1563,263.1875 60.7188,263.4844 L60.7188,266.2031 Q60.0938,265.625 59.5,265.3594 Q58.9063,265.0781 58.2813,265.0781 Q56.9375,265.0781 56.25,266.1563 Q55.5625,267.2188 55.5625,269.3125 Q55.5625,271.4063 56.25,272.4844 Q56.9375,273.5469 58.2813,273.5469 Q58.9063,273.5469 59.5,273.2813 Q60.0938,273 60.7188,272.4219 L60.7188,275.1406 Z "/><text fill="#000000" font-family="sans-serif" font-size="12" lengthAdjust="spacingAndGlyphs" textLength="54" x="76.25" y="273.6543">UserDao</text><line style="stroke: #A80036; stroke-width: 1.5;" x1="23.5" x2="152.5" y1="285.5" y2="285.5"/><line style="stroke: #A80036; stroke-width: 1.5;" x1="23.5" x2="152.5" y1="293.5" y2="293.5"/><ellipse cx="33.5" cy="305.4023" fill="#84BE84" rx="3" ry="3" style="stroke: #038048; stroke-width: 1.0;"/><text fill="#000000" font-family="sans-serif" font-size="11" lengthAdjust="spacingAndGlyphs" textLength="102" x="42.5" y="307.7104">create(User): void</text><ellipse cx="33.5" cy="318.207" fill="#84BE84" rx="3" ry="3" style="stroke: #038048; stroke-width: 1.0;"/><text fill="#000000" font-family="sans-serif" font-size="11" lengthAdjust="spacingAndGlyphs" textLength="103" x="42.5" y="320.5151">read(String): User</text><ellipse cx="33.5" cy="331.0117" fill="#84BE84" rx="3" ry="3" style="stroke: #038048; stroke-width: 1.0;"/><text fill="#000000" font-family="sans-serif" font-size="11" lengthAdjust="spacingAndGlyphs" textLength="105" x="42.5" y="333.3198">update(User): void</text><ellipse cx="33.5" cy="343.8164" fill="#84BE84" rx="3" ry="3" style="stroke: #038048; stroke-width: 1.0;"/><text fill="#000000" font-family="sans-serif" font-size="11" lengthAdjust="spacingAndGlyphs" textLength="101" x="42.5" y="346.1245">delete(User): void</text></a><!--class com.envibe.envibe.dao.CachedItemDao--><a href="CachedItemDao.html" target="_top" xlink:actuate="onRequest" xlink:show="new" xlink:title="CachedItemDao.html" xlink:type="simple"><rect fill="#FEFECE" filter="url(#f6htqd7qyca8a)" height="176.0469" id="com.envibe.envibe.dao.CachedItemDao" style="stroke: #A80036; stroke-width: 1.5;" width="337" x="188.5" y="215"/><ellipse cx="303.25" cy="231" fill="#ADD1B2" rx="11" ry="11" style="stroke: #A80036; stroke-width: 1.0;"/><path d="M306.2188,236.6406 Q305.6406,236.9375 305,237.0781 Q304.3594,237.2344 303.6563,237.2344 Q301.1563,237.2344 299.8281,235.5938 Q298.5156,233.9375 298.5156,230.8125 Q298.5156,227.6875 299.8281,226.0313 Q301.1563,224.375 303.6563,224.375 Q304.3594,224.375 305,224.5313 Q305.6563,224.6875 306.2188,224.9844 L306.2188,227.7031 Q305.5938,227.125 305,226.8594 Q304.4063,226.5781 303.7813,226.5781 Q302.4375,226.5781 301.75,227.6563 Q301.0625,228.7188 301.0625,230.8125 Q301.0625,232.9063 301.75,233.9844 Q302.4375,235.0469 303.7813,235.0469 Q304.4063,235.0469 305,234.7813 Q305.5938,234.5 306.2188,233.9219 L306.2188,236.6406 Z "/><text fill="#000000" font-family="sans-serif" font-size="12" lengthAdjust="spacingAndGlyphs" textLength="99" x="323.75" y="235.1543">CachedItemDao</text><line style="stroke: #A80036; stroke-width: 1.5;" x1="189.5" x2="524.5" y1="247" y2="247"/><ellipse cx="199.5" cy="258.9023" fill="none" rx="3" ry="3" style="stroke: #038048; stroke-width: 1.0;"/><text fill="#000000" font-family="sans-serif" font-size="11" lengthAdjust="spacingAndGlyphs" text-decoration="underline" textLength="196" x="208.5" y="261.2104">PURPOSE_GENERAL_CACHE: String</text><ellipse cx="199.5" cy="271.707" fill="none" rx="3" ry="3" style="stroke: #038048; stroke-width: 1.0;"/><text fill="#000000" font-family="sans-serif" font-size="11" lengthAdjust="spacingAndGlyphs" text-decoration="underline" textLength="211" x="208.5" y="274.0151">PURPOSE_NEWS_FEED_CACHE: String</text><ellipse cx="199.5" cy="284.5117" fill="none" rx="3" ry="3" style="stroke: #038048; stroke-width: 1.0;"/><text fill="#000000" font-family="sans-serif" font-size="11" lengthAdjust="spacingAndGlyphs" text-decoration="underline" textLength="311" x="208.5" y="286.8198">PURPOSE_NEWS_FEED_WORKER_PASSTHROUGH: String</text><line style="stroke: #A80036; stroke-width: 1.5;" x1="189.5" x2="524.5" y1="293.4141" y2="293.4141"/><ellipse cx="199.5" cy="305.3164" fill="#84BE84" rx="3" ry="3" style="stroke: #038048; stroke-width: 1.0;"/><text fill="#000000" font-family="sans-serif" font-size="11" lengthAdjust="spacingAndGlyphs" textLength="142" x="208.5" y="307.6245">create(CachedItem): void</text><ellipse cx="199.5" cy="318.1211" fill="#84BE84" rx="3" ry="3" style="stroke: #038048; stroke-width: 1.0;"/><text fill="#000000" font-family="sans-serif" font-size="11" lengthAdjust="spacingAndGlyphs" textLength="143" x="208.5" y="320.4292">read(String): CachedItem</text><ellipse cx="199.5" cy="330.9258" fill="#84BE84" rx="3" ry="3" style="stroke: #038048; stroke-width: 1.0;"/><text fill="#000000" font-family="sans-serif" font-size="11" lengthAdjust="spacingAndGlyphs" textLength="200" x="208.5" y="333.2339">readAndDelete(String): CachedItem</text><ellipse cx="199.5" cy="343.7305" fill="#84BE84" rx="3" ry="3" style="stroke: #038048; stroke-width: 1.0;"/><text fill="#000000" font-family="sans-serif" font-size="11" lengthAdjust="spacingAndGlyphs" textLength="145" x="208.5" y="346.0386">update(CachedItem): void</text><ellipse cx="199.5" cy="356.5352" fill="#84BE84" rx="3" ry="3" style="stroke: #038048; stroke-width: 1.0;"/><text fill="#000000" font-family="sans-serif" font-size="11" lengthAdjust="spacingAndGlyphs" textLength="141" x="208.5" y="358.8433">delete(CachedItem): void</text><ellipse cx="199.5" cy="369.3398" fill="#84BE84" rx="3" ry="3" style="stroke: #038048; stroke-width: 1.0;"/><text fill="#000000" font-family="sans-serif" font-size="11" lengthAdjust="spacingAndGlyphs" textLength="108" x="208.5" y="371.6479">delete(String): void</text><ellipse cx="199.5" cy="382.1445" fill="#84BE84" rx="3" ry="3" style="stroke: #038048; stroke-width: 1.0;"/><text fill="#000000" font-family="sans-serif" font-size="11" lengthAdjust="spacingAndGlyphs" textLength="198" x="208.5" y="384.4526">generateTag(String, String): String</text></a><!--link com.envibe.envibe.dao.NewsItemDao to com.envibe.envibe.dao.FriendDao--><!--link com.envibe.envibe.dao.NewsItemDao to com.envibe.envibe.dao.UserDao--><!--link com.envibe.envibe.dao.UserDao to com.envibe.envibe.dao.CachedItemDao--><text fill="#888888" font-family="sans-serif" font-size="10" lengthAdjust="spacingAndGlyphs" textLength="186" x="187" y="426.2822">UMLDoclet 1.1.4, PlantUML 1.2019.05</text><!--
@startuml

    namespace com.envibe.envibe.dao {

        class NewsItemDao [[NewsItemDao.html]] {
            +create(NewsItem): void
            +read(int): NewsItem
            +read(String): List<NewsItem>
            +update(NewsItem): void
            +delete(NewsItem): void
        }

        class FriendDao [[FriendDao.html]] {
            +create(Relationship): void
            +read(String): List<Relationship>
            +update(Relationship): void
            +delete(Relationship): void
        }

        class UserDao [[UserDao.html]] {
            +create(User): void
            +read(String): User
            +update(User): void
            +delete(User): void
        }

        class CachedItemDao [[CachedItemDao.html]] {
            {static} +PURPOSE_GENERAL_CACHE: String
            {static} +PURPOSE_NEWS_FEED_CACHE: String
            {static} +PURPOSE_NEWS_FEED_WORKER_PASSTHROUGH: String
            +create(CachedItem): void
            +read(String): CachedItem
            +readAndDelete(String): CachedItem
            +update(CachedItem): void
            +delete(CachedItem): void
            +delete(String): void
            +generateTag(String, String): String
        }

    }


    center footer UMLDoclet 1.1.4, PlantUML 1.2019.05
@enduml

PlantUML version 1.2019.05(Sat Apr 20 16:45:36 UTC 2019)
(APACHE source distribution)
Java Runtime: OpenJDK Runtime Environment
JVM: OpenJDK 64-Bit Server VM
Java Version: 1.8.0_242-b08
Operating System: Linux
OS Version: 5.0.0-1031-gcp
Default Encoding: UTF-8
Language: en
Country: US
--></g></svg>