<?xml version="1.0" encoding="UTF-8" standalone="no"?><svg xmlns="http://www.w3.org/2000/svg" xmlns:xlink="http://www.w3.org/1999/xlink" contentScriptType="application/ecmascript" contentStyleType="text/css" height="139px" preserveAspectRatio="none" style="width:198px;height:139px;" version="1.1" viewBox="0 0 198 139" width="198px" zoomAndPan="magnify"><defs><filter height="300%" id="f1q297zexywvu2" width="300%" x="-1" y="-1"><feGaussianBlur result="blurOut" stdDeviation="2.0"/><feColorMatrix in="blurOut" result="blurOut2" type="matrix" values="0 0 0 0 0 0 0 0 0 0 0 0 0 0 0 0 0 0 .4 0"/><feOffset dx="4.0" dy="4.0" in="blurOut2" result="blurOut3"/><feBlend in="SourceGraphic" in2="blurOut3" mode="normal"/></filter></defs><g><!--class UserDao--><a href="UserDao.html" target="_top" xlink:actuate="onRequest" xlink:show="new" xlink:title="UserDao.html" xlink:type="simple"><rect fill="#FEFECE" filter="url(#f1q297zexywvu2)" height="99.2188" id="UserDao" style="stroke: #A80036; stroke-width: 1.5;" width="131" x="21.5" y="8"/><ellipse cx="56.75" cy="24" fill="#ADD1B2" rx="11" ry="11" style="stroke: #A80036; stroke-width: 1.0;"/><path d="M59.7188,29.6406 Q59.1406,29.9375 58.5,30.0781 Q57.8594,30.2344 57.1563,30.2344 Q54.6563,30.2344 53.3281,28.5938 Q52.0156,26.9375 52.0156,23.8125 Q52.0156,20.6875 53.3281,19.0313 Q54.6563,17.375 57.1563,17.375 Q57.8594,17.375 58.5,17.5313 Q59.1563,17.6875 59.7188,17.9844 L59.7188,20.7031 Q59.0938,20.125 58.5,19.8594 Q57.9063,19.5781 57.2813,19.5781 Q55.9375,19.5781 55.25,20.6563 Q54.5625,21.7188 54.5625,23.8125 Q54.5625,25.9063 55.25,26.9844 Q55.9375,28.0469 57.2813,28.0469 Q57.9063,28.0469 58.5,27.7813 Q59.0938,27.5 59.7188,26.9219 L59.7188,29.6406 Z "/><text fill="#000000" font-family="sans-serif" font-size="12" lengthAdjust="spacingAndGlyphs" textLength="54" x="75.25" y="28.1543">UserDao</text><line style="stroke: #A80036; stroke-width: 1.5;" x1="22.5" x2="151.5" y1="40" y2="40"/><line style="stroke: #A80036; stroke-width: 1.5;" x1="22.5" x2="151.5" y1="48" y2="48"/><ellipse cx="32.5" cy="59.9023" fill="#84BE84" rx="3" ry="3" style="stroke: #038048; stroke-width: 1.0;"/><text fill="#000000" font-family="sans-serif" font-size="11" lengthAdjust="spacingAndGlyphs" textLength="102" x="41.5" y="62.2104">create(User): void</text><ellipse cx="32.5" cy="72.707" fill="#84BE84" rx="3" ry="3" style="stroke: #038048; stroke-width: 1.0;"/><text fill="#000000" font-family="sans-serif" font-size="11" lengthAdjust="spacingAndGlyphs" textLength="103" x="41.5" y="75.0151">read(String): User</text><ellipse cx="32.5" cy="85.5117" fill="#84BE84" rx="3" ry="3" style="stroke: #038048; stroke-width: 1.0;"/><text fill="#000000" font-family="sans-serif" font-size="11" lengthAdjust="spacingAndGlyphs" textLength="105" x="41.5" y="87.8198">update(User): void</text><ellipse cx="32.5" cy="98.3164" fill="#84BE84" rx="3" ry="3" style="stroke: #038048; stroke-width: 1.0;"/><text fill="#000000" font-family="sans-serif" font-size="11" lengthAdjust="spacingAndGlyphs" textLength="101" x="41.5" y="100.6245">delete(User): void</text></a><text fill="#888888" font-family="sans-serif" font-size="10" lengthAdjust="spacingAndGlyphs" textLength="186" x="0" y="126.2822">UMLDoclet 1.1.4, PlantUML 1.2019.05</text><!--
@startuml

    class UserDao [[UserDao.html]] {
        +create(User): void
        +read(String): User
        +update(User): void
        +delete(User): void
    }


    center footer UMLDoclet 1.1.4, PlantUML 1.2019.05
@enduml

PlantUML version 1.2019.05(Sat Apr 20 16:45:36 UTC 2019)
(APACHE source distribution)
Java Runtime: OpenJDK Runtime Environment
JVM: OpenJDK 64-Bit Server VM
Java Version: 1.8.0_242-b08
Operating System: Linux
OS Version: 5.0.0-1031-gcp
Default Encoding: UTF-8
Language: en
Country: US
--></g></svg>