<?xml version="1.0" encoding="UTF-8" standalone="no"?><svg xmlns="http://www.w3.org/2000/svg" xmlns:xlink="http://www.w3.org/1999/xlink" contentScriptType="application/ecmascript" contentStyleType="text/css" height="152px" preserveAspectRatio="none" style="width:353px;height:152px;" version="1.1" viewBox="0 0 353 152" width="353px" zoomAndPan="magnify"><defs><filter height="300%" id="f12v5jp8sarszn" width="300%" x="-1" y="-1"><feGaussianBlur result="blurOut" stdDeviation="2.0"/><feColorMatrix in="blurOut" result="blurOut2" type="matrix" values="0 0 0 0 0 0 0 0 0 0 0 0 0 0 0 0 0 0 .4 0"/><feOffset dx="4.0" dy="4.0" in="blurOut2" result="blurOut3"/><feBlend in="SourceGraphic" in2="blurOut3" mode="normal"/></filter></defs><g><!--class AuthenticationController--><a href="AuthenticationController.html" target="_top" xlink:actuate="onRequest" xlink:show="new" xlink:title="AuthenticationController.html" xlink:type="simple"><rect fill="#FEFECE" filter="url(#f12v5jp8sarszn)" height="112.0234" id="AuthenticationController" style="stroke: #A80036; stroke-width: 1.5;" width="336" x="6" y="8"/><ellipse cx="93.25" cy="24" fill="#ADD1B2" rx="11" ry="11" style="stroke: #A80036; stroke-width: 1.0;"/><path d="M96.2188,29.6406 Q95.6406,29.9375 95,30.0781 Q94.3594,30.2344 93.6563,30.2344 Q91.1563,30.2344 89.8281,28.5938 Q88.5156,26.9375 88.5156,23.8125 Q88.5156,20.6875 89.8281,19.0313 Q91.1563,17.375 93.6563,17.375 Q94.3594,17.375 95,17.5313 Q95.6563,17.6875 96.2188,17.9844 L96.2188,20.7031 Q95.5938,20.125 95,19.8594 Q94.4063,19.5781 93.7813,19.5781 Q92.4375,19.5781 91.75,20.6563 Q91.0625,21.7188 91.0625,23.8125 Q91.0625,25.9063 91.75,26.9844 Q92.4375,28.0469 93.7813,28.0469 Q94.4063,28.0469 95,27.7813 Q95.5938,27.5 96.2188,26.9219 L96.2188,29.6406 Z "/><text fill="#000000" font-family="sans-serif" font-size="12" lengthAdjust="spacingAndGlyphs" textLength="153" x="113.75" y="28.1543">AuthenticationController</text><line style="stroke: #A80036; stroke-width: 1.5;" x1="7" x2="341" y1="40" y2="40"/><line style="stroke: #A80036; stroke-width: 1.5;" x1="7" x2="341" y1="48" y2="48"/><ellipse cx="17" cy="59.9023" fill="#84BE84" rx="3" ry="3" style="stroke: #038048; stroke-width: 1.0;"/><text fill="#000000" font-family="sans-serif" font-size="11" lengthAdjust="spacingAndGlyphs" textLength="179" x="26" y="62.2104">initBinder(WebDataBinder): void</text><ellipse cx="17" cy="72.707" fill="#84BE84" rx="3" ry="3" style="stroke: #038048; stroke-width: 1.0;"/><text fill="#000000" font-family="sans-serif" font-size="11" lengthAdjust="spacingAndGlyphs" textLength="194" x="26" y="75.0151">login(Model, String, String): String</text><ellipse cx="17" cy="85.5117" fill="#84BE84" rx="3" ry="3" style="stroke: #038048; stroke-width: 1.0;"/><text fill="#000000" font-family="sans-serif" font-size="11" lengthAdjust="spacingAndGlyphs" textLength="235" x="26" y="87.8198">logout(Model, HttpServletRequest): String</text><ellipse cx="17" cy="98.3164" fill="#84BE84" rx="3" ry="3" style="stroke: #038048; stroke-width: 1.0;"/><text fill="#000000" font-family="sans-serif" font-size="11" lengthAdjust="spacingAndGlyphs" textLength="149" x="26" y="100.6245">registration(Model): String</text><ellipse cx="17" cy="111.1211" fill="#84BE84" rx="3" ry="3" style="stroke: #038048; stroke-width: 1.0;"/><text fill="#000000" font-family="sans-serif" font-size="11" lengthAdjust="spacingAndGlyphs" textLength="310" x="26" y="113.4292">registerUser(User, HttpServletRequest, Errors): String</text></a><text fill="#888888" font-family="sans-serif" font-size="10" lengthAdjust="spacingAndGlyphs" textLength="186" x="87" y="139.2822">UMLDoclet 1.1.4, PlantUML 1.2019.05</text><!--
@startuml

    class AuthenticationController [[AuthenticationController.html]] {
        +initBinder(WebDataBinder): void
        +login(Model, String, String): String
        +logout(Model, HttpServletRequest): String
        +registration(Model): String
        +registerUser(User, HttpServletRequest, Errors): String
    }


    center footer UMLDoclet 1.1.4, PlantUML 1.2019.05
@enduml

PlantUML version 1.2019.05(Sat Apr 20 16:45:36 UTC 2019)
(APACHE source distribution)
Java Runtime: OpenJDK Runtime Environment
JVM: OpenJDK 64-Bit Server VM
Java Version: 1.8.0_242-b08
Operating System: Linux
OS Version: 5.0.0-1031-gcp
Default Encoding: UTF-8
Language: en
Country: US
--></g></svg>