<?xml version="1.0" encoding="UTF-8" standalone="no"?><svg xmlns="http://www.w3.org/2000/svg" xmlns:xlink="http://www.w3.org/1999/xlink" contentScriptType="application/ecmascript" contentStyleType="text/css" height="101px" preserveAspectRatio="none" style="width:198px;height:101px;" version="1.1" viewBox="0 0 198 101" width="198px" zoomAndPan="magnify"><defs><filter height="300%" id="f1jjys5x26cvp0" width="300%" x="-1" y="-1"><feGaussianBlur result="blurOut" stdDeviation="2.0"/><feColorMatrix in="blurOut" result="blurOut2" type="matrix" values="0 0 0 0 0 0 0 0 0 0 0 0 0 0 0 0 0 0 .4 0"/><feOffset dx="4.0" dy="4.0" in="blurOut2" result="blurOut3"/><feBlend in="SourceGraphic" in2="blurOut3" mode="normal"/></filter></defs><g><!--class HomeController--><a href="HomeController.html" target="_top" xlink:actuate="onRequest" xlink:show="new" xlink:title="HomeController.html" xlink:type="simple"><rect fill="#FEFECE" filter="url(#f1jjys5x26cvp0)" height="60.8047" id="HomeController" style="stroke: #A80036; stroke-width: 1.5;" width="139" x="17.5" y="8"/><ellipse cx="37" cy="24" fill="#ADD1B2" rx="11" ry="11" style="stroke: #A80036; stroke-width: 1.0;"/><path d="M39.9688,29.6406 Q39.3906,29.9375 38.75,30.0781 Q38.1094,30.2344 37.4063,30.2344 Q34.9063,30.2344 33.5781,28.5938 Q32.2656,26.9375 32.2656,23.8125 Q32.2656,20.6875 33.5781,19.0313 Q34.9063,17.375 37.4063,17.375 Q38.1094,17.375 38.75,17.5313 Q39.4063,17.6875 39.9688,17.9844 L39.9688,20.7031 Q39.3438,20.125 38.75,19.8594 Q38.1563,19.5781 37.5313,19.5781 Q36.1875,19.5781 35.5,20.6563 Q34.8125,21.7188 34.8125,23.8125 Q34.8125,25.9063 35.5,26.9844 Q36.1875,28.0469 37.5313,28.0469 Q38.1563,28.0469 38.75,27.7813 Q39.3438,27.5 39.9688,26.9219 L39.9688,29.6406 Z "/><text fill="#000000" font-family="sans-serif" font-size="12" lengthAdjust="spacingAndGlyphs" textLength="97" x="52" y="28.1543">HomeController</text><line style="stroke: #A80036; stroke-width: 1.5;" x1="18.5" x2="155.5" y1="40" y2="40"/><line style="stroke: #A80036; stroke-width: 1.5;" x1="18.5" x2="155.5" y1="48" y2="48"/><ellipse cx="28.5" cy="59.9023" fill="#84BE84" rx="3" ry="3" style="stroke: #038048; stroke-width: 1.0;"/><text fill="#000000" font-family="sans-serif" font-size="11" lengthAdjust="spacingAndGlyphs" textLength="113" x="37.5" y="62.2104">index(Model): String</text></a><text fill="#888888" font-family="sans-serif" font-size="10" lengthAdjust="spacingAndGlyphs" textLength="186" x="0" y="88.2822">UMLDoclet 1.1.4, PlantUML 1.2019.05</text><!--
@startuml

    class HomeController [[HomeController.html]] {
        +index(Model): String
    }


    center footer UMLDoclet 1.1.4, PlantUML 1.2019.05
@enduml

PlantUML version 1.2019.05(Sat Apr 20 16:45:36 UTC 2019)
(APACHE source distribution)
Java Runtime: OpenJDK Runtime Environment
JVM: OpenJDK 64-Bit Server VM
Java Version: 1.8.0_242-b08
Operating System: Linux
OS Version: 5.0.0-1031-gcp
Default Encoding: UTF-8
Language: en
Country: US
--></g></svg>