<?xml version="1.0" encoding="UTF-8" standalone="no"?><svg xmlns="http://www.w3.org/2000/svg" xmlns:xlink="http://www.w3.org/1999/xlink" contentScriptType="application/ecmascript" contentStyleType="text/css" height="203px" preserveAspectRatio="none" style="width:563px;height:203px;" version="1.1" viewBox="0 0 563 203" width="563px" zoomAndPan="magnify"><defs><filter height="300%" id="f11os7u71o1ep0" width="300%" x="-1" y="-1"><feGaussianBlur result="blurOut" stdDeviation="2.0"/><feColorMatrix in="blurOut" result="blurOut2" type="matrix" values="0 0 0 0 0 0 0 0 0 0 0 0 0 0 0 0 0 0 .4 0"/><feOffset dx="4.0" dy="4.0" in="blurOut2" result="blurOut3"/><feBlend in="SourceGraphic" in2="blurOut3" mode="normal"/></filter></defs><g><!--cluster com.envibe.envibe.controller--><polygon fill="#FFFFFF" filter="url(#f11os7u71o1ep0)" points="14,16,251,16,258,38.2969,541,38.2969,541,163,14,163,14,16" style="stroke: #000000; stroke-width: 1.5;"/><line style="stroke: #000000; stroke-width: 1.5;" x1="14" x2="258" y1="38.2969" y2="38.2969"/><text fill="#000000" font-family="sans-serif" font-size="14" font-weight="bold" lengthAdjust="spacingAndGlyphs" textLength="231" x="18" y="30.9951">com.envibe.envibe.controller</text><!--class com.envibe.envibe.controller.HomeController--><a href="HomeController.html" target="_top" xlink:actuate="onRequest" xlink:show="new" xlink:title="HomeController.html" xlink:type="simple"><rect fill="#FEFECE" filter="url(#f11os7u71o1ep0)" height="60.8047" id="com.envibe.envibe.controller.HomeController" style="stroke: #A80036; stroke-width: 1.5;" width="139" x="393.5" y="68.5"/><ellipse cx="413" cy="84.5" fill="#ADD1B2" rx="11" ry="11" style="stroke: #A80036; stroke-width: 1.0;"/><path d="M415.9688,90.1406 Q415.3906,90.4375 414.75,90.5781 Q414.1094,90.7344 413.4063,90.7344 Q410.9063,90.7344 409.5781,89.0938 Q408.2656,87.4375 408.2656,84.3125 Q408.2656,81.1875 409.5781,79.5313 Q410.9063,77.875 413.4063,77.875 Q414.1094,77.875 414.75,78.0313 Q415.4063,78.1875 415.9688,78.4844 L415.9688,81.2031 Q415.3438,80.625 414.75,80.3594 Q414.1563,80.0781 413.5313,80.0781 Q412.1875,80.0781 411.5,81.1563 Q410.8125,82.2188 410.8125,84.3125 Q410.8125,86.4063 411.5,87.4844 Q412.1875,88.5469 413.5313,88.5469 Q414.1563,88.5469 414.75,88.2813 Q415.3438,88 415.9688,87.4219 L415.9688,90.1406 Z "/><text fill="#000000" font-family="sans-serif" font-size="12" lengthAdjust="spacingAndGlyphs" textLength="97" x="428" y="88.6543">HomeController</text><line style="stroke: #A80036; stroke-width: 1.5;" x1="394.5" x2="531.5" y1="100.5" y2="100.5"/><line style="stroke: #A80036; stroke-width: 1.5;" x1="394.5" x2="531.5" y1="108.5" y2="108.5"/><ellipse cx="404.5" cy="120.4023" fill="#84BE84" rx="3" ry="3" style="stroke: #038048; stroke-width: 1.0;"/><text fill="#000000" font-family="sans-serif" font-size="11" lengthAdjust="spacingAndGlyphs" textLength="113" x="413.5" y="122.7104">index(Model): String</text></a><!--class com.envibe.envibe.controller.AuthenticationController--><a href="AuthenticationController.html" target="_top" xlink:actuate="onRequest" xlink:show="new" xlink:title="AuthenticationController.html" xlink:type="simple"><rect fill="#FEFECE" filter="url(#f11os7u71o1ep0)" height="112.0234" id="com.envibe.envibe.controller.AuthenticationController" style="stroke: #A80036; stroke-width: 1.5;" width="336" x="22" y="43"/><ellipse cx="109.25" cy="59" fill="#ADD1B2" rx="11" ry="11" style="stroke: #A80036; stroke-width: 1.0;"/><path d="M112.2188,64.6406 Q111.6406,64.9375 111,65.0781 Q110.3594,65.2344 109.6563,65.2344 Q107.1563,65.2344 105.8281,63.5938 Q104.5156,61.9375 104.5156,58.8125 Q104.5156,55.6875 105.8281,54.0313 Q107.1563,52.375 109.6563,52.375 Q110.3594,52.375 111,52.5313 Q111.6563,52.6875 112.2188,52.9844 L112.2188,55.7031 Q111.5938,55.125 111,54.8594 Q110.4063,54.5781 109.7813,54.5781 Q108.4375,54.5781 107.75,55.6563 Q107.0625,56.7188 107.0625,58.8125 Q107.0625,60.9063 107.75,61.9844 Q108.4375,63.0469 109.7813,63.0469 Q110.4063,63.0469 111,62.7813 Q111.5938,62.5 112.2188,61.9219 L112.2188,64.6406 Z "/><text fill="#000000" font-family="sans-serif" font-size="12" lengthAdjust="spacingAndGlyphs" textLength="153" x="129.75" y="63.1543">AuthenticationController</text><line style="stroke: #A80036; stroke-width: 1.5;" x1="23" x2="357" y1="75" y2="75"/><line style="stroke: #A80036; stroke-width: 1.5;" x1="23" x2="357" y1="83" y2="83"/><ellipse cx="33" cy="94.9023" fill="#84BE84" rx="3" ry="3" style="stroke: #038048; stroke-width: 1.0;"/><text fill="#000000" font-family="sans-serif" font-size="11" lengthAdjust="spacingAndGlyphs" textLength="179" x="42" y="97.2104">initBinder(WebDataBinder): void</text><ellipse cx="33" cy="107.707" fill="#84BE84" rx="3" ry="3" style="stroke: #038048; stroke-width: 1.0;"/><text fill="#000000" font-family="sans-serif" font-size="11" lengthAdjust="spacingAndGlyphs" textLength="194" x="42" y="110.0151">login(Model, String, String): String</text><ellipse cx="33" cy="120.5117" fill="#84BE84" rx="3" ry="3" style="stroke: #038048; stroke-width: 1.0;"/><text fill="#000000" font-family="sans-serif" font-size="11" lengthAdjust="spacingAndGlyphs" textLength="235" x="42" y="122.8198">logout(Model, HttpServletRequest): String</text><ellipse cx="33" cy="133.3164" fill="#84BE84" rx="3" ry="3" style="stroke: #038048; stroke-width: 1.0;"/><text fill="#000000" font-family="sans-serif" font-size="11" lengthAdjust="spacingAndGlyphs" textLength="149" x="42" y="135.6245">registration(Model): String</text><ellipse cx="33" cy="146.1211" fill="#84BE84" rx="3" ry="3" style="stroke: #038048; stroke-width: 1.0;"/><text fill="#000000" font-family="sans-serif" font-size="11" lengthAdjust="spacingAndGlyphs" textLength="310" x="42" y="148.4292">registerUser(User, HttpServletRequest, Errors): String</text></a><text fill="#888888" font-family="sans-serif" font-size="10" lengthAdjust="spacingAndGlyphs" textLength="186" x="190.5" y="190.2822">UMLDoclet 1.1.4, PlantUML 1.2019.05</text><!--
@startuml

    namespace com.envibe.envibe.controller {

        class HomeController [[HomeController.html]] {
            +index(Model): String
        }

        class AuthenticationController [[AuthenticationController.html]] {
            +initBinder(WebDataBinder): void
            +login(Model, String, String): String
            +logout(Model, HttpServletRequest): String
            +registration(Model): String
            +registerUser(User, HttpServletRequest, Errors): String
        }

    }


    center footer UMLDoclet 1.1.4, PlantUML 1.2019.05
@enduml

PlantUML version 1.2019.05(Sat Apr 20 16:45:36 UTC 2019)
(APACHE source distribution)
Java Runtime: OpenJDK Runtime Environment
JVM: OpenJDK 64-Bit Server VM
Java Version: 1.8.0_242-b08
Operating System: Linux
OS Version: 5.0.0-1031-gcp
Default Encoding: UTF-8
Language: en
Country: US
--></g></svg>