<?xml version="1.0" encoding="UTF-8" standalone="no"?><svg xmlns="http://www.w3.org/2000/svg" xmlns:xlink="http://www.w3.org/1999/xlink" contentScriptType="application/ecmascript" contentStyleType="text/css" height="273px" preserveAspectRatio="none" style="width:773px;height:273px;" version="1.1" viewBox="0 0 773 273" width="773px" zoomAndPan="magnify"><defs><filter height="300%" id="fkxnzmqev6vwk" width="300%" x="-1" y="-1"><feGaussianBlur result="blurOut" stdDeviation="2.0"/><feColorMatrix in="blurOut" result="blurOut2" type="matrix" values="0 0 0 0 0 0 0 0 0 0 0 0 0 0 0 0 0 0 .4 0"/><feOffset dx="4.0" dy="4.0" in="blurOut2" result="blurOut3"/><feBlend in="SourceGraphic" in2="blurOut3" mode="normal"/></filter></defs><g><!--cluster com.envibe.envibe.rowmapper--><polygon fill="#FFFFFF" filter="url(#fkxnzmqev6vwk)" points="14,137,265,137,272,159.2969,751,159.2969,751,233,14,233,14,137" style="stroke: #000000; stroke-width: 1.5;"/><line style="stroke: #000000; stroke-width: 1.5;" x1="14" x2="272" y1="159.2969" y2="159.2969"/><text fill="#000000" font-family="sans-serif" font-size="14" font-weight="bold" lengthAdjust="spacingAndGlyphs" textLength="245" x="18" y="151.9951">com.envibe.envibe.rowmapper</text><!--cluster org.springframework.jdbc.core--><polygon fill="#FFFFFF" filter="url(#fkxnzmqev6vwk)" points="237,16,490,16,497,38.2969,500,38.2969,500,112,237,112,237,16" style="stroke: #000000; stroke-width: 1.5;"/><line style="stroke: #000000; stroke-width: 1.5;" x1="237" x2="497" y1="38.2969" y2="38.2969"/><text fill="#000000" font-family="sans-serif" font-size="14" font-weight="bold" lengthAdjust="spacingAndGlyphs" textLength="247" x="241" y="30.9951">org.springframework.jdbc.core</text><!--class com.envibe.envibe.rowmapper.NewsItemRowMapper--><a href="NewsItemRowMapper.html" target="_top" xlink:actuate="onRequest" xlink:show="new" xlink:title="NewsItemRowMapper.html" xlink:type="simple"><rect fill="#FEFECE" filter="url(#fkxnzmqev6vwk)" height="60.8047" id="com.envibe.envibe.rowmapper.NewsItemRowMapper" style="stroke: #A80036; stroke-width: 1.5;" width="222" x="521" y="164"/><ellipse cx="562.1" cy="180" fill="#ADD1B2" rx="11" ry="11" style="stroke: #A80036; stroke-width: 1.0;"/><path d="M565.0688,185.6406 Q564.4906,185.9375 563.85,186.0781 Q563.2094,186.2344 562.5063,186.2344 Q560.0063,186.2344 558.6781,184.5938 Q557.3656,182.9375 557.3656,179.8125 Q557.3656,176.6875 558.6781,175.0313 Q560.0063,173.375 562.5063,173.375 Q563.2094,173.375 563.85,173.5313 Q564.5063,173.6875 565.0688,173.9844 L565.0688,176.7031 Q564.4438,176.125 563.85,175.8594 Q563.2563,175.5781 562.6313,175.5781 Q561.2875,175.5781 560.6,176.6563 Q559.9125,177.7188 559.9125,179.8125 Q559.9125,181.9063 560.6,182.9844 Q561.2875,184.0469 562.6313,184.0469 Q563.2563,184.0469 563.85,183.7813 Q564.4438,183.5 565.0688,182.9219 L565.0688,185.6406 Z "/><text fill="#000000" font-family="sans-serif" font-size="12" lengthAdjust="spacingAndGlyphs" textLength="132" x="581.9" y="184.1543">NewsItemRowMapper</text><line style="stroke: #A80036; stroke-width: 1.5;" x1="522" x2="742" y1="196" y2="196"/><line style="stroke: #A80036; stroke-width: 1.5;" x1="522" x2="742" y1="204" y2="204"/><ellipse cx="532" cy="215.9023" fill="#84BE84" rx="3" ry="3" style="stroke: #038048; stroke-width: 1.0;"/><text fill="#000000" font-family="sans-serif" font-size="11" lengthAdjust="spacingAndGlyphs" textLength="196" x="541" y="218.2104">mapRow(ResultSet, int): NewsItem</text></a><!--class com.envibe.envibe.rowmapper.FriendRowMapper--><a href="FriendRowMapper.html" target="_top" xlink:actuate="onRequest" xlink:show="new" xlink:title="FriendRowMapper.html" xlink:type="simple"><rect fill="#FEFECE" filter="url(#fkxnzmqev6vwk)" height="60.8047" id="com.envibe.envibe.rowmapper.FriendRowMapper" style="stroke: #A80036; stroke-width: 1.5;" width="235" x="250.5" y="164"/><ellipse cx="308.25" cy="180" fill="#ADD1B2" rx="11" ry="11" style="stroke: #A80036; stroke-width: 1.0;"/><path d="M311.2188,185.6406 Q310.6406,185.9375 310,186.0781 Q309.3594,186.2344 308.6563,186.2344 Q306.1563,186.2344 304.8281,184.5938 Q303.5156,182.9375 303.5156,179.8125 Q303.5156,176.6875 304.8281,175.0313 Q306.1563,173.375 308.6563,173.375 Q309.3594,173.375 310,173.5313 Q310.6563,173.6875 311.2188,173.9844 L311.2188,176.7031 Q310.5938,176.125 310,175.8594 Q309.4063,175.5781 308.7813,175.5781 Q307.4375,175.5781 306.75,176.6563 Q306.0625,177.7188 306.0625,179.8125 Q306.0625,181.9063 306.75,182.9844 Q307.4375,184.0469 308.7813,184.0469 Q309.4063,184.0469 310,183.7813 Q310.5938,183.5 311.2188,182.9219 L311.2188,185.6406 Z "/><text fill="#000000" font-family="sans-serif" font-size="12" lengthAdjust="spacingAndGlyphs" textLength="111" x="328.75" y="184.1543">FriendRowMapper</text><line style="stroke: #A80036; stroke-width: 1.5;" x1="251.5" x2="484.5" y1="196" y2="196"/><line style="stroke: #A80036; stroke-width: 1.5;" x1="251.5" x2="484.5" y1="204" y2="204"/><ellipse cx="261.5" cy="215.9023" fill="#84BE84" rx="3" ry="3" style="stroke: #038048; stroke-width: 1.0;"/><text fill="#000000" font-family="sans-serif" font-size="11" lengthAdjust="spacingAndGlyphs" textLength="209" x="270.5" y="218.2104">mapRow(ResultSet, int): Relationship</text></a><!--class com.envibe.envibe.rowmapper.UserRowMapper--><a href="UserRowMapper.html" target="_top" xlink:actuate="onRequest" xlink:show="new" xlink:title="UserRowMapper.html" xlink:type="simple"><rect fill="#FEFECE" filter="url(#fkxnzmqev6vwk)" height="60.8047" id="com.envibe.envibe.rowmapper.UserRowMapper" style="stroke: #A80036; stroke-width: 1.5;" width="193" x="22.5" y="164"/><ellipse cx="64.5" cy="180" fill="#ADD1B2" rx="11" ry="11" style="stroke: #A80036; stroke-width: 1.0;"/><path d="M67.4688,185.6406 Q66.8906,185.9375 66.25,186.0781 Q65.6094,186.2344 64.9063,186.2344 Q62.4063,186.2344 61.0781,184.5938 Q59.7656,182.9375 59.7656,179.8125 Q59.7656,176.6875 61.0781,175.0313 Q62.4063,173.375 64.9063,173.375 Q65.6094,173.375 66.25,173.5313 Q66.9063,173.6875 67.4688,173.9844 L67.4688,176.7031 Q66.8438,176.125 66.25,175.8594 Q65.6563,175.5781 65.0313,175.5781 Q63.6875,175.5781 63,176.6563 Q62.3125,177.7188 62.3125,179.8125 Q62.3125,181.9063 63,182.9844 Q63.6875,184.0469 65.0313,184.0469 Q65.6563,184.0469 66.25,183.7813 Q66.8438,183.5 67.4688,182.9219 L67.4688,185.6406 Z "/><text fill="#000000" font-family="sans-serif" font-size="12" lengthAdjust="spacingAndGlyphs" textLength="101" x="84.5" y="184.1543">UserRowMapper</text><line style="stroke: #A80036; stroke-width: 1.5;" x1="23.5" x2="214.5" y1="196" y2="196"/><line style="stroke: #A80036; stroke-width: 1.5;" x1="23.5" x2="214.5" y1="204" y2="204"/><ellipse cx="33.5" cy="215.9023" fill="#84BE84" rx="3" ry="3" style="stroke: #038048; stroke-width: 1.0;"/><text fill="#000000" font-family="sans-serif" font-size="11" lengthAdjust="spacingAndGlyphs" textLength="167" x="42.5" y="218.2104">mapRow(ResultSet, int): User</text></a><!--class org.springframework.jdbc.core.RowMapper--><rect fill="#FEFECE" filter="url(#fkxnzmqev6vwk)" height="60.8047" id="org.springframework.jdbc.core.RowMapper" style="stroke: #A80036; stroke-width: 1.5;" width="173" x="281.5" y="43"/><ellipse cx="322.6" cy="59" fill="#B4A7E5" rx="11" ry="11" style="stroke: #A80036; stroke-width: 1.0;"/><path d="M318.5219,54.7656 L318.5219,52.6094 L325.9125,52.6094 L325.9125,54.7656 L323.4438,54.7656 L323.4438,62.8438 L325.9125,62.8438 L325.9125,65 L318.5219,65 L318.5219,62.8438 L320.9906,62.8438 L320.9906,54.7656 L318.5219,54.7656 Z "/><text fill="#000000" font-family="sans-serif" font-size="12" font-style="italic" lengthAdjust="spacingAndGlyphs" textLength="72" x="342.4" y="63.1543">RowMapper</text><rect fill="#FFFFFF" height="15.9688" style="stroke: #000000; stroke-width: 1.0; stroke-dasharray: 2.0,2.0;" width="9" x="448.5" y="40"/><text fill="#000000" font-family="sans-serif" font-size="12" font-style="italic" lengthAdjust="spacingAndGlyphs" textLength="7" x="449.5" y="52.1387">T</text><line style="stroke: #A80036; stroke-width: 1.5;" x1="282.5" x2="453.5" y1="75" y2="75"/><line style="stroke: #A80036; stroke-width: 1.5;" x1="282.5" x2="453.5" y1="83" y2="83"/><ellipse cx="292.5" cy="94.9023" fill="#84BE84" rx="3" ry="3" style="stroke: #038048; stroke-width: 1.0;"/><text fill="#000000" font-family="sans-serif" font-size="11" font-style="italic" lengthAdjust="spacingAndGlyphs" textLength="147" x="301.5" y="97.2104">mapRow(ResultSet, int): T</text><!--link org.springframework.jdbc.core.RowMapper to com.envibe.envibe.rowmapper.NewsItemRowMapper--><path d="M452.8285,112.3797 C489.276,129.0848 531.2482,148.3221 565.403,163.9764 " fill="none" id="org.springframework.jdbc.core.RowMapper-com.envibe.envibe.rowmapper.NewsItemRowMapper" style="stroke: #A80036; stroke-width: 1.0; stroke-dasharray: 7.0,7.0;"/><polygon fill="none" points="449.883,118.73,434.6183,104.0334,455.7163,106.0031,449.883,118.73" style="stroke: #A80036; stroke-width: 1.0;"/><!--link org.springframework.jdbc.core.RowMapper to com.envibe.envibe.rowmapper.FriendRowMapper--><path d="M368,124.2927 C368,137.7857 368,151.9401 368,163.9764 " fill="none" id="org.springframework.jdbc.core.RowMapper-com.envibe.envibe.rowmapper.FriendRowMapper" style="stroke: #A80036; stroke-width: 1.0; stroke-dasharray: 7.0,7.0;"/><polygon fill="none" points="361.0001,124.0334,368,104.0334,375.0001,124.0334,361.0001,124.0334" style="stroke: #A80036; stroke-width: 1.0;"/><!--link org.springframework.jdbc.core.RowMapper to com.envibe.envibe.rowmapper.UserRowMapper--><path d="M283.6629,112.7334 C266.8401,120.6821 249.3278,129.0441 233,137 C215.3646,145.5931 196.2982,155.1167 178.8979,163.9006 " fill="none" id="org.springframework.jdbc.core.RowMapper-com.envibe.envibe.rowmapper.UserRowMapper" style="stroke: #A80036; stroke-width: 1.0; stroke-dasharray: 7.0,7.0;"/><polygon fill="none" points="280.8323,106.3291,301.9091,104.1447,286.7948,118.996,280.8323,106.3291" style="stroke: #A80036; stroke-width: 1.0;"/><text fill="#888888" font-family="sans-serif" font-size="10" lengthAdjust="spacingAndGlyphs" textLength="186" x="295.5" y="260.2822">UMLDoclet 1.1.4, PlantUML 1.2019.05</text><!--
@startuml

    namespace com.envibe.envibe.rowmapper {

        class NewsItemRowMapper [[NewsItemRowMapper.html]] {
            +mapRow(ResultSet, int): NewsItem
        }

        class FriendRowMapper [[FriendRowMapper.html]] {
            +mapRow(ResultSet, int): Relationship
        }

        class UserRowMapper [[UserRowMapper.html]] {
            +mapRow(ResultSet, int): User
        }

        interface org.springframework.jdbc.core.RowMapper<T> {
            {abstract} +mapRow(ResultSet, int): T
        }
        org.springframework.jdbc.core.RowMapper <|.. NewsItemRowMapper

        org.springframework.jdbc.core.RowMapper <|.. FriendRowMapper

        org.springframework.jdbc.core.RowMapper <|.. UserRowMapper

    }


    center footer UMLDoclet 1.1.4, PlantUML 1.2019.05
@enduml

PlantUML version 1.2019.05(Sat Apr 20 16:45:36 UTC 2019)
(APACHE source distribution)
Java Runtime: OpenJDK Runtime Environment
JVM: OpenJDK 64-Bit Server VM
Java Version: 1.8.0_242-b08
Operating System: Linux
OS Version: 5.0.0-1031-gcp
Default Encoding: UTF-8
Language: en
Country: US
--></g></svg>