<?xml version="1.0" encoding="UTF-8" standalone="no"?><svg xmlns="http://www.w3.org/2000/svg" xmlns:xlink="http://www.w3.org/1999/xlink" contentScriptType="application/ecmascript" contentStyleType="text/css" height="229px" preserveAspectRatio="none" style="width:239px;height:229px;" version="1.1" viewBox="0 0 239 229" width="239px" zoomAndPan="magnify"><defs><filter height="300%" id="fxhlorlpqmqxj" width="300%" x="-1" y="-1"><feGaussianBlur result="blurOut" stdDeviation="2.0"/><feColorMatrix in="blurOut" result="blurOut2" type="matrix" values="0 0 0 0 0 0 0 0 0 0 0 0 0 0 0 0 0 0 .4 0"/><feOffset dx="4.0" dy="4.0" in="blurOut2" result="blurOut3"/><feBlend in="SourceGraphic" in2="blurOut3" mode="normal"/></filter></defs><g><!--class NewsItem--><a href="NewsItem.html" target="_top" xlink:actuate="onRequest" xlink:show="new" xlink:title="NewsItem.html" xlink:type="simple"><rect fill="#FEFECE" filter="url(#fxhlorlpqmqxj)" height="188.8516" id="NewsItem" style="stroke: #A80036; stroke-width: 1.5;" width="222" x="6" y="8"/><ellipse cx="82.75" cy="24" fill="#ADD1B2" rx="11" ry="11" style="stroke: #A80036; stroke-width: 1.0;"/><path d="M85.7188,29.6406 Q85.1406,29.9375 84.5,30.0781 Q83.8594,30.2344 83.1563,30.2344 Q80.6563,30.2344 79.3281,28.5938 Q78.0156,26.9375 78.0156,23.8125 Q78.0156,20.6875 79.3281,19.0313 Q80.6563,17.375 83.1563,17.375 Q83.8594,17.375 84.5,17.5313 Q85.1563,17.6875 85.7188,17.9844 L85.7188,20.7031 Q85.0938,20.125 84.5,19.8594 Q83.9063,19.5781 83.2813,19.5781 Q81.9375,19.5781 81.25,20.6563 Q80.5625,21.7188 80.5625,23.8125 Q80.5625,25.9063 81.25,26.9844 Q81.9375,28.0469 83.2813,28.0469 Q83.9063,28.0469 84.5,27.7813 Q85.0938,27.5 85.7188,26.9219 L85.7188,29.6406 Z "/><text fill="#000000" font-family="sans-serif" font-size="12" lengthAdjust="spacingAndGlyphs" textLength="60" x="103.25" y="28.1543">NewsItem</text><line style="stroke: #A80036; stroke-width: 1.5;" x1="7" x2="227" y1="40" y2="40"/><line style="stroke: #A80036; stroke-width: 1.5;" x1="7" x2="227" y1="48" y2="48"/><ellipse cx="17" cy="59.9023" fill="#84BE84" rx="3" ry="3" style="stroke: #038048; stroke-width: 1.0;"/><text fill="#000000" font-family="sans-serif" font-size="11" lengthAdjust="spacingAndGlyphs" textLength="64" x="26" y="62.2104">NewsItem()</text><ellipse cx="17" cy="72.707" fill="#84BE84" rx="3" ry="3" style="stroke: #038048; stroke-width: 1.0;"/><text fill="#000000" font-family="sans-serif" font-size="11" lengthAdjust="spacingAndGlyphs" textLength="174" x="26" y="75.0151">NewsItem(String, Date, String)</text><ellipse cx="17" cy="85.5117" fill="#84BE84" rx="3" ry="3" style="stroke: #038048; stroke-width: 1.0;"/><text fill="#000000" font-family="sans-serif" font-size="11" lengthAdjust="spacingAndGlyphs" textLength="196" x="26" y="87.8198">NewsItem(int, String, Date, String)</text><ellipse cx="17" cy="98.3164" fill="#84BE84" rx="3" ry="3" style="stroke: #038048; stroke-width: 1.0;"/><text fill="#000000" font-family="sans-serif" font-size="11" lengthAdjust="spacingAndGlyphs" textLength="89" x="26" y="100.6245">getPost_id(): int</text><ellipse cx="17" cy="111.1211" fill="#84BE84" rx="3" ry="3" style="stroke: #038048; stroke-width: 1.0;"/><text fill="#000000" font-family="sans-serif" font-size="11" lengthAdjust="spacingAndGlyphs" textLength="112" x="26" y="113.4292">setPost_id(int): void</text><ellipse cx="17" cy="123.9258" fill="#84BE84" rx="3" ry="3" style="stroke: #038048; stroke-width: 1.0;"/><text fill="#000000" font-family="sans-serif" font-size="11" lengthAdjust="spacingAndGlyphs" textLength="127" x="26" y="126.2339">getUsername(): String</text><ellipse cx="17" cy="136.7305" fill="#84BE84" rx="3" ry="3" style="stroke: #038048; stroke-width: 1.0;"/><text fill="#000000" font-family="sans-serif" font-size="11" lengthAdjust="spacingAndGlyphs" textLength="150" x="26" y="139.0386">setUsername(String): void</text><ellipse cx="17" cy="149.5352" fill="#84BE84" rx="3" ry="3" style="stroke: #038048; stroke-width: 1.0;"/><text fill="#000000" font-family="sans-serif" font-size="11" lengthAdjust="spacingAndGlyphs" textLength="116" x="26" y="151.8433">getPost_date(): Date</text><ellipse cx="17" cy="162.3398" fill="#84BE84" rx="3" ry="3" style="stroke: #038048; stroke-width: 1.0;"/><text fill="#000000" font-family="sans-serif" font-size="11" lengthAdjust="spacingAndGlyphs" textLength="139" x="26" y="164.6479">setPost_date(Date): void</text><ellipse cx="17" cy="175.1445" fill="#84BE84" rx="3" ry="3" style="stroke: #038048; stroke-width: 1.0;"/><text fill="#000000" font-family="sans-serif" font-size="11" lengthAdjust="spacingAndGlyphs" textLength="112" x="26" y="177.4526">getContent(): String</text><ellipse cx="17" cy="187.9492" fill="#84BE84" rx="3" ry="3" style="stroke: #038048; stroke-width: 1.0;"/><text fill="#000000" font-family="sans-serif" font-size="11" lengthAdjust="spacingAndGlyphs" textLength="135" x="26" y="190.2573">setContent(String): void</text></a><text fill="#888888" font-family="sans-serif" font-size="10" lengthAdjust="spacingAndGlyphs" textLength="186" x="30" y="216.2822">UMLDoclet 1.1.4, PlantUML 1.2019.05</text><!--
@startuml

    class NewsItem [[NewsItem.html]] {
        +NewsItem()
        +NewsItem(String, Date, String)
        +NewsItem(int, String, Date, String)
        +getPost_id(): int
        +setPost_id(int): void
        +getUsername(): String
        +setUsername(String): void
        +getPost_date(): Date
        +setPost_date(Date): void
        +getContent(): String
        +setContent(String): void
    }


    center footer UMLDoclet 1.1.4, PlantUML 1.2019.05
@enduml

PlantUML version 1.2019.05(Sat Apr 20 16:45:36 UTC 2019)
(APACHE source distribution)
Java Runtime: OpenJDK Runtime Environment
JVM: OpenJDK 64-Bit Server VM
Java Version: 1.8.0_242-b08
Operating System: Linux
OS Version: 5.0.0-1031-gcp
Default Encoding: UTF-8
Language: en
Country: US
--></g></svg>