<?xml version="1.0" encoding="UTF-8" standalone="no"?><svg xmlns="http://www.w3.org/2000/svg" xmlns:xlink="http://www.w3.org/1999/xlink" contentScriptType="application/ecmascript" contentStyleType="text/css" height="465px" preserveAspectRatio="none" style="width:959px;height:465px;" version="1.1" viewBox="0 0 959 465" width="959px" zoomAndPan="magnify"><defs><filter height="300%" id="f1cox9mkxy8zda" width="300%" x="-1" y="-1"><feGaussianBlur result="blurOut" stdDeviation="2.0"/><feColorMatrix in="blurOut" result="blurOut2" type="matrix" values="0 0 0 0 0 0 0 0 0 0 0 0 0 0 0 0 0 0 .4 0"/><feOffset dx="4.0" dy="4.0" in="blurOut2" result="blurOut3"/><feBlend in="SourceGraphic" in2="blurOut3" mode="normal"/></filter></defs><g><!--cluster com.envibe.envibe.model--><polygon fill="#FFFFFF" filter="url(#f1cox9mkxy8zda)" points="14,124,222,124,229,146.2969,937,146.2969,937,425,14,425,14,124" style="stroke: #000000; stroke-width: 1.5;"/><line style="stroke: #000000; stroke-width: 1.5;" x1="14" x2="229" y1="146.2969" y2="146.2969"/><text fill="#000000" font-family="sans-serif" font-size="14" font-weight="bold" lengthAdjust="spacingAndGlyphs" textLength="202" x="18" y="138.9951">com.envibe.envibe.model</text><!--cluster java.io--><polygon fill="#FFFFFF" filter="url(#f1cox9mkxy8zda)" points="545,16,601,16,608,38.2969,663,38.2969,663,99,545,99,545,16" style="stroke: #000000; stroke-width: 1.5;"/><line style="stroke: #000000; stroke-width: 1.5;" x1="545" x2="608" y1="38.2969" y2="38.2969"/><text fill="#000000" font-family="sans-serif" font-size="14" font-weight="bold" lengthAdjust="spacingAndGlyphs" textLength="50" x="549" y="30.9951">java.io</text><!--class com.envibe.envibe.model.User--><a href="User.html" target="_top" xlink:actuate="onRequest" xlink:show="new" xlink:title="User.html" xlink:type="simple"><rect fill="#FEFECE" filter="url(#f1cox9mkxy8zda)" height="265.6797" id="com.envibe.envibe.model.User" style="stroke: #A80036; stroke-width: 1.5;" width="180" x="749" y="151"/><ellipse cx="820.25" cy="167" fill="#ADD1B2" rx="11" ry="11" style="stroke: #A80036; stroke-width: 1.0;"/><path d="M823.2188,172.6406 Q822.6406,172.9375 822,173.0781 Q821.3594,173.2344 820.6563,173.2344 Q818.1563,173.2344 816.8281,171.5938 Q815.5156,169.9375 815.5156,166.8125 Q815.5156,163.6875 816.8281,162.0313 Q818.1563,160.375 820.6563,160.375 Q821.3594,160.375 822,160.5313 Q822.6563,160.6875 823.2188,160.9844 L823.2188,163.7031 Q822.5938,163.125 822,162.8594 Q821.4063,162.5781 820.7813,162.5781 Q819.4375,162.5781 818.75,163.6563 Q818.0625,164.7188 818.0625,166.8125 Q818.0625,168.9063 818.75,169.9844 Q819.4375,171.0469 820.7813,171.0469 Q821.4063,171.0469 822,170.7813 Q822.5938,170.5 823.2188,169.9219 L823.2188,172.6406 Z "/><text fill="#000000" font-family="sans-serif" font-size="12" lengthAdjust="spacingAndGlyphs" textLength="29" x="840.75" y="171.1543">User</text><line style="stroke: #A80036; stroke-width: 1.5;" x1="750" x2="928" y1="183" y2="183"/><line style="stroke: #A80036; stroke-width: 1.5;" x1="750" x2="928" y1="191" y2="191"/><ellipse cx="760" cy="202.9023" fill="#84BE84" rx="3" ry="3" style="stroke: #038048; stroke-width: 1.0;"/><text fill="#000000" font-family="sans-serif" font-size="11" lengthAdjust="spacingAndGlyphs" textLength="35" x="769" y="205.2104">User()</text><ellipse cx="760" cy="215.707" fill="#84BE84" rx="3" ry="3" style="stroke: #038048; stroke-width: 1.0;"/><text fill="#000000" font-family="sans-serif" font-size="11" lengthAdjust="spacingAndGlyphs" textLength="92" x="769" y="218.0151">getRole(): String</text><ellipse cx="760" cy="228.5117" fill="#84BE84" rx="3" ry="3" style="stroke: #038048; stroke-width: 1.0;"/><text fill="#000000" font-family="sans-serif" font-size="11" lengthAdjust="spacingAndGlyphs" textLength="115" x="769" y="230.8198">setRole(String): void</text><ellipse cx="760" cy="241.3164" fill="#84BE84" rx="3" ry="3" style="stroke: #038048; stroke-width: 1.0;"/><text fill="#000000" font-family="sans-serif" font-size="11" lengthAdjust="spacingAndGlyphs" textLength="127" x="769" y="243.6245">getUsername(): String</text><ellipse cx="760" cy="254.1211" fill="#84BE84" rx="3" ry="3" style="stroke: #038048; stroke-width: 1.0;"/><text fill="#000000" font-family="sans-serif" font-size="11" lengthAdjust="spacingAndGlyphs" textLength="150" x="769" y="256.4292">setUsername(String): void</text><ellipse cx="760" cy="266.9258" fill="#84BE84" rx="3" ry="3" style="stroke: #038048; stroke-width: 1.0;"/><text fill="#000000" font-family="sans-serif" font-size="11" lengthAdjust="spacingAndGlyphs" textLength="124" x="769" y="269.2339">getPassword(): String</text><ellipse cx="760" cy="279.7305" fill="#84BE84" rx="3" ry="3" style="stroke: #038048; stroke-width: 1.0;"/><text fill="#000000" font-family="sans-serif" font-size="11" lengthAdjust="spacingAndGlyphs" textLength="147" x="769" y="282.0386">setPassword(String): void</text><ellipse cx="760" cy="292.5352" fill="#84BE84" rx="3" ry="3" style="stroke: #038048; stroke-width: 1.0;"/><text fill="#000000" font-family="sans-serif" font-size="11" lengthAdjust="spacingAndGlyphs" textLength="99" x="769" y="294.8433">getEmail(): String</text><ellipse cx="760" cy="305.3398" fill="#84BE84" rx="3" ry="3" style="stroke: #038048; stroke-width: 1.0;"/><text fill="#000000" font-family="sans-serif" font-size="11" lengthAdjust="spacingAndGlyphs" textLength="122" x="769" y="307.6479">setEmail(String): void</text><ellipse cx="760" cy="318.1445" fill="#84BE84" rx="3" ry="3" style="stroke: #038048; stroke-width: 1.0;"/><text fill="#000000" font-family="sans-serif" font-size="11" lengthAdjust="spacingAndGlyphs" textLength="112" x="769" y="320.4526">getCountry(): String</text><ellipse cx="760" cy="330.9492" fill="#84BE84" rx="3" ry="3" style="stroke: #038048; stroke-width: 1.0;"/><text fill="#000000" font-family="sans-serif" font-size="11" lengthAdjust="spacingAndGlyphs" textLength="135" x="769" y="333.2573">setCountry(String): void</text><ellipse cx="760" cy="343.7539" fill="#84BE84" rx="3" ry="3" style="stroke: #038048; stroke-width: 1.0;"/><text fill="#000000" font-family="sans-serif" font-size="11" lengthAdjust="spacingAndGlyphs" textLength="107" x="769" y="346.062">getBirthday(): Date</text><ellipse cx="760" cy="356.5586" fill="#84BE84" rx="3" ry="3" style="stroke: #038048; stroke-width: 1.0;"/><text fill="#000000" font-family="sans-serif" font-size="11" lengthAdjust="spacingAndGlyphs" textLength="130" x="769" y="358.8667">setBirthday(Date): void</text><ellipse cx="760" cy="369.3633" fill="#84BE84" rx="3" ry="3" style="stroke: #038048; stroke-width: 1.0;"/><text fill="#000000" font-family="sans-serif" font-size="11" lengthAdjust="spacingAndGlyphs" textLength="130" x="769" y="371.6714">getLast_name(): String</text><ellipse cx="760" cy="382.168" fill="#84BE84" rx="3" ry="3" style="stroke: #038048; stroke-width: 1.0;"/><text fill="#000000" font-family="sans-serif" font-size="11" lengthAdjust="spacingAndGlyphs" textLength="153" x="769" y="384.4761">setLast_name(String): void</text><ellipse cx="760" cy="394.9727" fill="#84BE84" rx="3" ry="3" style="stroke: #038048; stroke-width: 1.0;"/><text fill="#000000" font-family="sans-serif" font-size="11" lengthAdjust="spacingAndGlyphs" textLength="131" x="769" y="397.2808">getFirst_name(): String</text><ellipse cx="760" cy="407.7773" fill="#84BE84" rx="3" ry="3" style="stroke: #038048; stroke-width: 1.0;"/><text fill="#000000" font-family="sans-serif" font-size="11" lengthAdjust="spacingAndGlyphs" textLength="154" x="769" y="410.0854">setFirst_name(String): void</text></a><!--class com.envibe.envibe.model.CachedItem--><a href="CachedItem.html" target="_top" xlink:actuate="onRequest" xlink:show="new" xlink:title="CachedItem.html" xlink:type="simple"><rect fill="#FEFECE" filter="url(#f1cox9mkxy8zda)" height="124.8281" id="com.envibe.envibe.model.CachedItem" style="stroke: #A80036; stroke-width: 1.5;" width="219" x="494.5" y="221.5"/><ellipse cx="562.75" cy="237.5" fill="#ADD1B2" rx="11" ry="11" style="stroke: #A80036; stroke-width: 1.0;"/><path d="M565.7188,243.1406 Q565.1406,243.4375 564.5,243.5781 Q563.8594,243.7344 563.1563,243.7344 Q560.6563,243.7344 559.3281,242.0938 Q558.0156,240.4375 558.0156,237.3125 Q558.0156,234.1875 559.3281,232.5313 Q560.6563,230.875 563.1563,230.875 Q563.8594,230.875 564.5,231.0313 Q565.1563,231.1875 565.7188,231.4844 L565.7188,234.2031 Q565.0938,233.625 564.5,233.3594 Q563.9063,233.0781 563.2813,233.0781 Q561.9375,233.0781 561.25,234.1563 Q560.5625,235.2188 560.5625,237.3125 Q560.5625,239.4063 561.25,240.4844 Q561.9375,241.5469 563.2813,241.5469 Q563.9063,241.5469 564.5,241.2813 Q565.0938,241 565.7188,240.4219 L565.7188,243.1406 Z "/><text fill="#000000" font-family="sans-serif" font-size="12" lengthAdjust="spacingAndGlyphs" textLength="74" x="583.25" y="241.6543">CachedItem</text><line style="stroke: #A80036; stroke-width: 1.5;" x1="495.5" x2="712.5" y1="253.5" y2="253.5"/><line style="stroke: #A80036; stroke-width: 1.5;" x1="495.5" x2="712.5" y1="261.5" y2="261.5"/><ellipse cx="505.5" cy="273.4023" fill="#84BE84" rx="3" ry="3" style="stroke: #038048; stroke-width: 1.0;"/><text fill="#000000" font-family="sans-serif" font-size="11" lengthAdjust="spacingAndGlyphs" textLength="75" x="514.5" y="275.7104">CachedItem()</text><ellipse cx="505.5" cy="286.207" fill="#84BE84" rx="3" ry="3" style="stroke: #038048; stroke-width: 1.0;"/><text fill="#000000" font-family="sans-serif" font-size="11" lengthAdjust="spacingAndGlyphs" textLength="193" x="514.5" y="288.5151">CachedItem(String, String, String)</text><ellipse cx="505.5" cy="299.0117" fill="#84BE84" rx="3" ry="3" style="stroke: #038048; stroke-width: 1.0;"/><text fill="#000000" font-family="sans-serif" font-size="11" lengthAdjust="spacingAndGlyphs" textLength="115" x="514.5" y="301.3198">getPurpose(): String</text><ellipse cx="505.5" cy="311.8164" fill="#84BE84" rx="3" ry="3" style="stroke: #038048; stroke-width: 1.0;"/><text fill="#000000" font-family="sans-serif" font-size="11" lengthAdjust="spacingAndGlyphs" textLength="116" x="514.5" y="314.1245">getUserTag(): String</text><ellipse cx="505.5" cy="324.6211" fill="#84BE84" rx="3" ry="3" style="stroke: #038048; stroke-width: 1.0;"/><text fill="#000000" font-family="sans-serif" font-size="11" lengthAdjust="spacingAndGlyphs" textLength="112" x="514.5" y="326.9292">getPayload(): String</text><ellipse cx="505.5" cy="337.4258" fill="#84BE84" rx="3" ry="3" style="stroke: #038048; stroke-width: 1.0;"/><text fill="#000000" font-family="sans-serif" font-size="11" lengthAdjust="spacingAndGlyphs" textLength="135" x="514.5" y="339.7339">setPayload(String): void</text></a><!--class com.envibe.envibe.model.NewsItem--><a href="NewsItem.html" target="_top" xlink:actuate="onRequest" xlink:show="new" xlink:title="NewsItem.html" xlink:type="simple"><rect fill="#FEFECE" filter="url(#f1cox9mkxy8zda)" height="188.8516" id="com.envibe.envibe.model.NewsItem" style="stroke: #A80036; stroke-width: 1.5;" width="222" x="237" y="189.5"/><ellipse cx="313.75" cy="205.5" fill="#ADD1B2" rx="11" ry="11" style="stroke: #A80036; stroke-width: 1.0;"/><path d="M316.7188,211.1406 Q316.1406,211.4375 315.5,211.5781 Q314.8594,211.7344 314.1563,211.7344 Q311.6563,211.7344 310.3281,210.0938 Q309.0156,208.4375 309.0156,205.3125 Q309.0156,202.1875 310.3281,200.5313 Q311.6563,198.875 314.1563,198.875 Q314.8594,198.875 315.5,199.0313 Q316.1563,199.1875 316.7188,199.4844 L316.7188,202.2031 Q316.0938,201.625 315.5,201.3594 Q314.9063,201.0781 314.2813,201.0781 Q312.9375,201.0781 312.25,202.1563 Q311.5625,203.2188 311.5625,205.3125 Q311.5625,207.4063 312.25,208.4844 Q312.9375,209.5469 314.2813,209.5469 Q314.9063,209.5469 315.5,209.2813 Q316.0938,209 316.7188,208.4219 L316.7188,211.1406 Z "/><text fill="#000000" font-family="sans-serif" font-size="12" lengthAdjust="spacingAndGlyphs" textLength="60" x="334.25" y="209.6543">NewsItem</text><line style="stroke: #A80036; stroke-width: 1.5;" x1="238" x2="458" y1="221.5" y2="221.5"/><line style="stroke: #A80036; stroke-width: 1.5;" x1="238" x2="458" y1="229.5" y2="229.5"/><ellipse cx="248" cy="241.4023" fill="#84BE84" rx="3" ry="3" style="stroke: #038048; stroke-width: 1.0;"/><text fill="#000000" font-family="sans-serif" font-size="11" lengthAdjust="spacingAndGlyphs" textLength="64" x="257" y="243.7104">NewsItem()</text><ellipse cx="248" cy="254.207" fill="#84BE84" rx="3" ry="3" style="stroke: #038048; stroke-width: 1.0;"/><text fill="#000000" font-family="sans-serif" font-size="11" lengthAdjust="spacingAndGlyphs" textLength="174" x="257" y="256.5151">NewsItem(String, Date, String)</text><ellipse cx="248" cy="267.0117" fill="#84BE84" rx="3" ry="3" style="stroke: #038048; stroke-width: 1.0;"/><text fill="#000000" font-family="sans-serif" font-size="11" lengthAdjust="spacingAndGlyphs" textLength="196" x="257" y="269.3198">NewsItem(int, String, Date, String)</text><ellipse cx="248" cy="279.8164" fill="#84BE84" rx="3" ry="3" style="stroke: #038048; stroke-width: 1.0;"/><text fill="#000000" font-family="sans-serif" font-size="11" lengthAdjust="spacingAndGlyphs" textLength="89" x="257" y="282.1245">getPost_id(): int</text><ellipse cx="248" cy="292.6211" fill="#84BE84" rx="3" ry="3" style="stroke: #038048; stroke-width: 1.0;"/><text fill="#000000" font-family="sans-serif" font-size="11" lengthAdjust="spacingAndGlyphs" textLength="112" x="257" y="294.9292">setPost_id(int): void</text><ellipse cx="248" cy="305.4258" fill="#84BE84" rx="3" ry="3" style="stroke: #038048; stroke-width: 1.0;"/><text fill="#000000" font-family="sans-serif" font-size="11" lengthAdjust="spacingAndGlyphs" textLength="127" x="257" y="307.7339">getUsername(): String</text><ellipse cx="248" cy="318.2305" fill="#84BE84" rx="3" ry="3" style="stroke: #038048; stroke-width: 1.0;"/><text fill="#000000" font-family="sans-serif" font-size="11" lengthAdjust="spacingAndGlyphs" textLength="150" x="257" y="320.5386">setUsername(String): void</text><ellipse cx="248" cy="331.0352" fill="#84BE84" rx="3" ry="3" style="stroke: #038048; stroke-width: 1.0;"/><text fill="#000000" font-family="sans-serif" font-size="11" lengthAdjust="spacingAndGlyphs" textLength="116" x="257" y="333.3433">getPost_date(): Date</text><ellipse cx="248" cy="343.8398" fill="#84BE84" rx="3" ry="3" style="stroke: #038048; stroke-width: 1.0;"/><text fill="#000000" font-family="sans-serif" font-size="11" lengthAdjust="spacingAndGlyphs" textLength="139" x="257" y="346.1479">setPost_date(Date): void</text><ellipse cx="248" cy="356.6445" fill="#84BE84" rx="3" ry="3" style="stroke: #038048; stroke-width: 1.0;"/><text fill="#000000" font-family="sans-serif" font-size="11" lengthAdjust="spacingAndGlyphs" textLength="112" x="257" y="358.9526">getContent(): String</text><ellipse cx="248" cy="369.4492" fill="#84BE84" rx="3" ry="3" style="stroke: #038048; stroke-width: 1.0;"/><text fill="#000000" font-family="sans-serif" font-size="11" lengthAdjust="spacingAndGlyphs" textLength="135" x="257" y="371.7573">setContent(String): void</text></a><!--class com.envibe.envibe.model.Relationship--><a href="Relationship.html" target="_top" xlink:actuate="onRequest" xlink:show="new" xlink:title="Relationship.html" xlink:type="simple"><rect fill="#FEFECE" filter="url(#f1cox9mkxy8zda)" height="124.8281" id="com.envibe.envibe.model.Relationship" style="stroke: #A80036; stroke-width: 1.5;" width="179" x="22.5" y="221.5"/><ellipse cx="69.25" cy="237.5" fill="#ADD1B2" rx="11" ry="11" style="stroke: #A80036; stroke-width: 1.0;"/><path d="M72.2188,243.1406 Q71.6406,243.4375 71,243.5781 Q70.3594,243.7344 69.6563,243.7344 Q67.1563,243.7344 65.8281,242.0938 Q64.5156,240.4375 64.5156,237.3125 Q64.5156,234.1875 65.8281,232.5313 Q67.1563,230.875 69.6563,230.875 Q70.3594,230.875 71,231.0313 Q71.6563,231.1875 72.2188,231.4844 L72.2188,234.2031 Q71.5938,233.625 71,233.3594 Q70.4063,233.0781 69.7813,233.0781 Q68.4375,233.0781 67.75,234.1563 Q67.0625,235.2188 67.0625,237.3125 Q67.0625,239.4063 67.75,240.4844 Q68.4375,241.5469 69.7813,241.5469 Q70.4063,241.5469 71,241.2813 Q71.5938,241 72.2188,240.4219 L72.2188,243.1406 Z "/><text fill="#000000" font-family="sans-serif" font-size="12" lengthAdjust="spacingAndGlyphs" textLength="77" x="89.75" y="241.6543">Relationship</text><line style="stroke: #A80036; stroke-width: 1.5;" x1="23.5" x2="200.5" y1="253.5" y2="253.5"/><line style="stroke: #A80036; stroke-width: 1.5;" x1="23.5" x2="200.5" y1="261.5" y2="261.5"/><ellipse cx="33.5" cy="273.4023" fill="#84BE84" rx="3" ry="3" style="stroke: #038048; stroke-width: 1.0;"/><text fill="#000000" font-family="sans-serif" font-size="11" lengthAdjust="spacingAndGlyphs" textLength="77" x="42.5" y="275.7104">Relationship()</text><ellipse cx="33.5" cy="286.207" fill="#84BE84" rx="3" ry="3" style="stroke: #038048; stroke-width: 1.0;"/><text fill="#000000" font-family="sans-serif" font-size="11" lengthAdjust="spacingAndGlyphs" textLength="153" x="42.5" y="288.5151">Relationship(String, String)</text><ellipse cx="33.5" cy="299.0117" fill="#84BE84" rx="3" ry="3" style="stroke: #038048; stroke-width: 1.0;"/><text fill="#000000" font-family="sans-serif" font-size="11" lengthAdjust="spacingAndGlyphs" textLength="128" x="42.5" y="301.3198">getUserName(): String</text><ellipse cx="33.5" cy="311.8164" fill="#84BE84" rx="3" ry="3" style="stroke: #038048; stroke-width: 1.0;"/><text fill="#000000" font-family="sans-serif" font-size="11" lengthAdjust="spacingAndGlyphs" textLength="151" x="42.5" y="314.1245">setUserName(String): void</text><ellipse cx="33.5" cy="324.6211" fill="#84BE84" rx="3" ry="3" style="stroke: #038048; stroke-width: 1.0;"/><text fill="#000000" font-family="sans-serif" font-size="11" lengthAdjust="spacingAndGlyphs" textLength="130" x="42.5" y="326.9292">getUserFriend(): String</text><ellipse cx="33.5" cy="337.4258" fill="#84BE84" rx="3" ry="3" style="stroke: #038048; stroke-width: 1.0;"/><text fill="#000000" font-family="sans-serif" font-size="11" lengthAdjust="spacingAndGlyphs" textLength="153" x="42.5" y="339.7339">setUserFriend(String): void</text></a><!--class java.io.Serializable--><rect fill="#FEFECE" filter="url(#f1cox9mkxy8zda)" height="48" id="java.io.Serializable" style="stroke: #A80036; stroke-width: 1.5;" width="102" x="553" y="43"/><ellipse cx="568" cy="59" fill="#B4A7E5" rx="11" ry="11" style="stroke: #A80036; stroke-width: 1.0;"/><path d="M563.9219,54.7656 L563.9219,52.6094 L571.3125,52.6094 L571.3125,54.7656 L568.8438,54.7656 L568.8438,62.8438 L571.3125,62.8438 L571.3125,65 L563.9219,65 L563.9219,62.8438 L566.3906,62.8438 L566.3906,54.7656 L563.9219,54.7656 Z "/><text fill="#000000" font-family="sans-serif" font-size="12" font-style="italic" lengthAdjust="spacingAndGlyphs" textLength="70" x="582" y="63.1543">Serializable</text><line style="stroke: #A80036; stroke-width: 1.5;" x1="554" x2="654" y1="75" y2="75"/><line style="stroke: #A80036; stroke-width: 1.5;" x1="554" x2="654" y1="83" y2="83"/><!--link java.io.Serializable to com.envibe.envibe.model.User--><path d="M673.8339,90.103 C693.6363,98.7499 714.3233,109.9688 731,124 C740.6166,132.0911 749.7333,141.245 758.2902,150.9767 " fill="none" id="java.io.Serializable-com.envibe.envibe.model.User" style="stroke: #A80036; stroke-width: 1.0; stroke-dasharray: 7.0,7.0;"/><polygon fill="none" points="671.1916,96.5852,655.2789,82.5929,676.4442,83.6079,671.1916,96.5852" style="stroke: #A80036; stroke-width: 1.0;"/><!--link java.io.Serializable to com.envibe.envibe.model.CachedItem--><path d="M604,111.4124 C604,143.1421 604,186.269 604,221.4735 " fill="none" id="java.io.Serializable-com.envibe.envibe.model.CachedItem" style="stroke: #A80036; stroke-width: 1.0; stroke-dasharray: 7.0,7.0;"/><polygon fill="none" points="597.0001,111.0519,604,91.0519,611.0001,111.0519,597.0001,111.0519" style="stroke: #A80036; stroke-width: 1.0;"/><!--link java.io.Serializable to com.envibe.envibe.model.NewsItem--><path d="M534.0932,91.3614 C514.5515,99.9798 494.0232,110.8681 477,124 C453.268,142.3071 431.2213,165.8267 412.3089,189.1671 " fill="none" id="java.io.Serializable-com.envibe.envibe.model.NewsItem" style="stroke: #A80036; stroke-width: 1.0; stroke-dasharray: 7.0,7.0;"/><polygon fill="none" points="531.6008,84.8173,552.7582,83.6483,536.9477,97.756,531.6008,84.8173" style="stroke: #A80036; stroke-width: 1.0;"/><text fill="#888888" font-family="sans-serif" font-size="10" lengthAdjust="spacingAndGlyphs" textLength="186" x="388.5" y="452.2822">UMLDoclet 1.1.4, PlantUML 1.2019.05</text><!--
@startuml

    namespace com.envibe.envibe.model {

        class User [[User.html]] {
            +User()
            +getRole(): String
            +setRole(String): void
            +getUsername(): String
            +setUsername(String): void
            +getPassword(): String
            +setPassword(String): void
            +getEmail(): String
            +setEmail(String): void
            +getCountry(): String
            +setCountry(String): void
            +getBirthday(): Date
            +setBirthday(Date): void
            +getLast_name(): String
            +setLast_name(String): void
            +getFirst_name(): String
            +setFirst_name(String): void
        }

        class CachedItem [[CachedItem.html]] {
            +CachedItem()
            +CachedItem(String, String, String)
            +getPurpose(): String
            +getUserTag(): String
            +getPayload(): String
            +setPayload(String): void
        }

        class NewsItem [[NewsItem.html]] {
            +NewsItem()
            +NewsItem(String, Date, String)
            +NewsItem(int, String, Date, String)
            +getPost_id(): int
            +setPost_id(int): void
            +getUsername(): String
            +setUsername(String): void
            +getPost_date(): Date
            +setPost_date(Date): void
            +getContent(): String
            +setContent(String): void
        }

        class Relationship [[Relationship.html]] {
            +Relationship()
            +Relationship(String, String)
            +getUserName(): String
            +setUserName(String): void
            +getUserFriend(): String
            +setUserFriend(String): void
        }

        interface java.io.Serializable
        java.io.Serializable <|.. User

        java.io.Serializable <|.. CachedItem

        java.io.Serializable <|.. NewsItem

    }


    center footer UMLDoclet 1.1.4, PlantUML 1.2019.05
@enduml

PlantUML version 1.2019.05(Sat Apr 20 16:45:36 UTC 2019)
(APACHE source distribution)
Java Runtime: OpenJDK Runtime Environment
JVM: OpenJDK 64-Bit Server VM
Java Version: 1.8.0_242-b08
Operating System: Linux
OS Version: 5.0.0-1031-gcp
Default Encoding: UTF-8
Language: en
Country: US
--></g></svg>